<svg width="27" height="25" viewBox="0 0 27 25" fill="none" xmlns="http://www.w3.org/2000/svg">
          <path d="M13.375 15.5833C9.64675 15.5833 6.625 12.7854 6.625 9.33333V1H20.125V9.33333C20.125 12.7854 17.1032 15.5833 13.375 15.5833ZM13.375 15.5833C15.8603 15.5833 17.875 17.4488 17.875 19.75M13.375 15.5833C10.8897 15.5833 8.875 17.4488 8.875 19.75M6.625 3.08333H1V7.25C1 9.86354 3.01487 11.4167 5.5 11.4167H6.625V3.08333ZM20.125 11.4167H21.25C23.7351 11.4167 25.75 9.86354 25.75 7.25V3.08333H20.125V11.4167ZM5.5 23.9167H21.25V19.75H5.5V23.9167Z" stroke="white" stroke-width="2"/>
          </svg>