<svg width="29" height="29" viewBox="0 0 29 29" fill="none" xmlns="http://www.w3.org/2000/svg">
<path d="M0.585573 1.58592C0.960629 1.21098 1.46924 1.00035 1.99957 1.00035C2.5299 1.00035 3.03852 1.21098 3.41357 1.58592L13.9996 12.1719L24.5856 1.58592C24.7701 1.3949 24.9908 1.24253 25.2348 1.13772C25.4788 1.0329 25.7412 0.977725 26.0068 0.975417C26.2723 0.97311 26.5357 1.02371 26.7815 1.12427C27.0273 1.22484 27.2506 1.37334 27.4384 1.56113C27.6261 1.74891 27.7747 1.97222 27.8752 2.21801C27.9758 2.4638 28.0264 2.72716 28.0241 2.99272C28.0218 3.25828 27.9666 3.52072 27.8618 3.76473C27.757 4.00873 27.6046 4.22942 27.4136 4.41392L16.8276 14.9999L27.4136 25.5859C27.7779 25.9631 27.9795 26.4683 27.9749 26.9927C27.9704 27.5171 27.76 28.0187 27.3892 28.3896C27.0184 28.7604 26.5168 28.9707 25.9924 28.9753C25.468 28.9798 24.9628 28.7782 24.5856 28.4139L13.9996 17.8279L3.41357 28.4139C3.03637 28.7782 2.53116 28.9798 2.00677 28.9753C1.48238 28.9707 0.980752 28.7604 0.609936 28.3896C0.23912 28.0187 0.0287811 27.5171 0.0242243 26.9927C0.0196674 26.4683 0.221257 25.9631 0.585573 25.5859L11.1716 14.9999L0.585573 4.41392C0.210631 4.03886 0 3.53025 0 2.99992C0 2.46959 0.210631 1.96097 0.585573 1.58592Z" fill="white"/>
</svg>
