<svg xmlns="http://www.w3.org/2000/svg" width="27" height="25" viewBox="0 0 27 25" fill="none">
          <g clip-path="url(#clip0_192_10)">
          <path d="M14.375 16.5833C10.6467 16.5833 7.625 13.7854 7.625 10.3333V2H21.125V10.3333C21.125 13.7854 18.1032 16.5833 14.375 16.5833ZM14.375 16.5833C16.8603 16.5833 18.875 18.4488 18.875 20.75M14.375 16.5833C11.8897 16.5833 9.875 18.4488 9.875 20.75M7.625 4.08333H2V8.25C2 10.8635 4.01487 12.4167 6.5 12.4167H7.625V4.08333ZM21.125 12.4167H22.25C24.7351 12.4167 26.75 10.8635 26.75 8.25V4.08333H21.125V12.4167ZM6.5 24.9167H22.25V20.75H6.5V24.9167Z" stroke="white" stroke-width="2"/>
          </g>
          <defs>
          <clipPath id="clip0_192_10">
          <rect width="27" height="25" fill="white"/>
          </clipPath>
          </defs>
        </svg>