<svg xmlns="http://www.w3.org/2000/svg" width="23" height="23" viewBox="0 0 23 23" fill="none">
          <g clip-path="url(#clip0_192_49)">
            <path d="M14.3252 4.7749V6.6849" stroke="white" stroke-width="2" stroke-linecap="round" stroke-linejoin="round"/>
            <path d="M14.3252 10.5049V12.4149" stroke="white" stroke-width="2" stroke-linecap="round" stroke-linejoin="round"/>
            <path d="M14.3252 16.2349V18.1449" stroke="white" stroke-width="2" stroke-linecap="round" stroke-linejoin="round"/>
            <path d="M4.77523 4.7749H18.1452C18.6518 4.7749 19.1376 4.97613 19.4958 5.33433C19.854 5.69252 20.0552 6.17834 20.0552 6.6849V9.5499C19.5487 9.5499 19.0629 9.75113 18.7047 10.1093C18.3465 10.4675 18.1452 10.9533 18.1452 11.4599C18.1452 11.9665 18.3465 12.4523 18.7047 12.8105C19.0629 13.1687 19.5487 13.3699 20.0552 13.3699V16.2349C20.0552 16.7415 19.854 17.2273 19.4958 17.5855C19.1376 17.9437 18.6518 18.1449 18.1452 18.1449H4.77523C4.26867 18.1449 3.78285 17.9437 3.42466 17.5855C3.06647 17.2273 2.86523 16.7415 2.86523 16.2349V13.3699C3.3718 13.3699 3.85761 13.1687 4.21581 12.8105C4.574 12.4523 4.77523 11.9665 4.77523 11.4599C4.77523 10.9533 4.574 10.4675 4.21581 10.1093C3.85761 9.75113 3.3718 9.5499 2.86523 9.5499V6.6849C2.86523 6.17834 3.06647 5.69252 3.42466 5.33433C3.78285 4.97613 4.26867 4.7749 4.77523 4.7749Z" stroke="white" stroke-width="2" stroke-linecap="round" stroke-linejoin="round"/>
          </g>
          <defs>
            <clipPath id="clip0_192_49">
              <rect width="22.92" height="22.92" fill="white"/>
            </clipPath>
          </defs>
        </svg>