      <svg width="35" height="27" viewBox="0 0 35 27" fill="none" xmlns="http://www.w3.org/2000/svg">
        <path d="M29.6289 2.17598C27.3981 1.16881 25.006 0.426782 22.5048 0.00178081C22.4593 -0.00641501 22.4138 0.0140746 22.3903 0.0550829C22.0826 0.593499 21.7418 1.2959 21.5032 1.84798C18.8131 1.4517 16.1367 1.4517 13.5017 1.84798C13.263 1.28363 12.9099 0.593499 12.6008 0.0550829C12.5774 0.0154454 12.5319 -0.00504418 12.4863 0.00178081C9.98652 0.425426 7.59435 1.16745 5.36218 2.17598C5.34286 2.18417 5.32631 2.19785 5.31531 2.21562C0.777862 8.88578 -0.465135 15.392 0.144637 21.8175C0.147396 21.849 0.165331 21.8791 0.190163 21.8982C3.18384 24.0615 6.08374 25.3747 8.92977 26.2452C8.97532 26.2589 9.02359 26.2425 9.05256 26.2055C9.7258 25.3009 10.3259 24.3471 10.8405 23.344C10.8708 23.2852 10.8418 23.2155 10.7798 23.1923C9.82789 22.837 8.92149 22.4038 8.0496 21.9119C7.98063 21.8722 7.9751 21.7752 8.03856 21.7287C8.22203 21.5934 8.40556 21.4526 8.58076 21.3106C8.61245 21.2846 8.65663 21.2791 8.69389 21.2954C14.4218 23.8688 20.623 23.8688 26.2835 21.2954C26.3207 21.2778 26.3649 21.2832 26.398 21.3091C26.5731 21.4513 26.7567 21.5934 26.9415 21.7287C27.0049 21.7752 27.0009 21.8722 26.9319 21.9119C26.0599 22.4134 25.1536 22.837 24.2003 23.191C24.1383 23.2142 24.1106 23.2852 24.1409 23.344C24.6667 24.3457 25.2668 25.2996 25.9275 26.2042C25.9551 26.2425 26.0048 26.2589 26.0503 26.2452C28.9101 25.3747 31.81 24.0615 34.8037 21.8982C34.8299 21.8791 34.8465 21.8503 34.8493 21.819C35.5791 14.3902 33.6269 7.93741 29.6744 2.21697C29.6648 2.19785 29.6483 2.18417 29.6289 2.17598ZM11.6958 17.9051C9.97134 17.9051 8.55039 16.3472 8.55039 14.434C8.55039 12.5208 9.94378 10.963 11.6958 10.963C13.4617 10.963 14.8689 12.5345 14.8413 14.434C14.8413 16.3472 13.4479 17.9051 11.6958 17.9051ZM23.3256 17.9051C21.6012 17.9051 20.1802 16.3472 20.1802 14.434C20.1802 12.5208 21.5735 10.963 23.3256 10.963C25.0915 10.963 26.4986 12.5345 26.4711 14.434C26.4711 16.3472 25.0915 17.9051 23.3256 17.9051Z" fill="white"/>
      </svg>