<svg xmlns="http://www.w3.org/2000/svg" width="31" height="32" viewBox="0 0 31 32" fill="none">
    <path d="M6.45857 19.9998C6.45857 20.3535 6.59466 20.6926 6.83689 20.9426C7.07912 21.1927 7.40766 21.3332 7.75024 21.3332C8.09281 21.3332 8.42135 21.1927 8.66358 20.9426C8.90582 20.6926 9.0419 20.3535 9.0419 19.9998C9.0419 19.6462 8.90582 19.3071 8.66358 19.057C8.42135 18.807 8.09281 18.6665 7.75024 18.6665C7.40766 18.6665 7.07912 18.807 6.83689 19.057C6.59466 19.3071 6.45857 19.6462 6.45857 19.9998ZM6.45857 23.7732C5.70226 23.4977 5.04734 22.9869 4.58409 22.311C4.12084 21.6352 3.87207 20.8277 3.87207 19.9998C3.87207 19.172 4.12084 18.3645 4.58409 17.6886C5.04734 17.0128 5.70226 16.502 6.45857 16.2265L6.45857 6.6665C6.45857 6.31288 6.59466 5.97374 6.83689 5.72369C7.07912 5.47364 7.40766 5.33317 7.75024 5.33317C8.09281 5.33317 8.42135 5.47364 8.66358 5.72369C8.90582 5.97374 9.0419 6.31288 9.0419 6.6665V16.2265C9.79822 16.502 10.4531 17.0128 10.9164 17.6886C11.3796 18.3645 11.6284 19.172 11.6284 19.9998C11.6284 20.8277 11.3796 21.6352 10.9164 22.311C10.4531 22.9869 9.79822 23.4977 9.0419 23.7732V25.3332C9.0419 25.6868 8.90582 26.0259 8.66358 26.276C8.42135 26.526 8.09281 26.6665 7.75024 26.6665C7.40766 26.6665 7.07912 26.526 6.83689 26.276C6.59466 26.0259 6.45857 25.6868 6.45857 25.3332V23.7732ZM14.2086 11.9998C14.2086 12.3535 14.3447 12.6926 14.5869 12.9426C14.8291 13.1927 15.1577 13.3332 15.5002 13.3332C15.8428 13.3332 16.1713 13.1927 16.4136 12.9426C16.6558 12.6926 16.7919 12.3535 16.7919 11.9998C16.7919 11.6462 16.6558 11.3071 16.4136 11.057C16.1713 10.807 15.8428 10.6665 15.5002 10.6665C15.1577 10.6665 14.8291 10.807 14.5869 11.057C14.3447 11.3071 14.2086 11.6462 14.2086 11.9998ZM14.2086 15.7732C13.4523 15.4977 12.7973 14.9869 12.3341 14.311C11.8708 13.6352 11.6221 12.8277 11.6221 11.9998C11.6221 11.172 11.8708 10.3645 12.3341 9.68864C12.7973 9.01282 13.4523 8.50197 14.2086 8.2265V6.6665C14.2086 6.31288 14.3447 5.97374 14.5869 5.72369C14.8291 5.47364 15.1577 5.33317 15.5002 5.33317C15.8428 5.33317 16.1713 5.47364 16.4136 5.72369C16.6558 5.97374 16.7919 6.31288 16.7919 6.6665V8.2265C17.5482 8.50197 18.2031 9.01282 18.6664 9.68864C19.1296 10.3645 19.3784 11.172 19.3784 11.9998C19.3784 12.8277 19.1296 13.6352 18.6664 14.311C18.2031 14.9869 17.5482 15.4977 16.7919 15.7732V25.3332C16.7919 25.6868 16.6558 26.0259 16.4136 26.276C16.1713 26.526 15.8428 26.6665 15.5002 26.6665C15.1577 26.6665 14.8291 26.526 14.5869 26.276C14.3447 26.0259 14.2086 25.6868 14.2086 25.3332V15.7732ZM21.9586 19.9998C21.9586 20.3535 22.0947 20.6926 22.3369 20.9426C22.5791 21.1927 22.9077 21.3332 23.2502 21.3332C23.5928 21.3332 23.9214 21.1927 24.1636 20.9426C24.4058 20.6926 24.5419 20.3535 24.5419 19.9998C24.5419 19.6462 24.4058 19.3071 24.1636 19.057C23.9214 18.807 23.5928 18.6665 23.2502 18.6665C22.9077 18.6665 22.5791 18.807 22.3369 19.057C22.0947 19.3071 21.9586 19.6462 21.9586 19.9998ZM21.9586 23.7732C21.2023 23.4977 20.5473 22.9869 20.0841 22.311C19.6208 21.6352 19.3721 20.8277 19.3721 19.9998C19.3721 19.172 19.6208 18.3645 20.0841 17.6886C20.5473 17.0128 21.2023 16.502 21.9586 16.2265V6.6665C21.9586 6.31288 22.0947 5.97374 22.3369 5.72369C22.5791 5.47364 22.9077 5.33317 23.2502 5.33317C23.5928 5.33317 23.9214 5.47364 24.1636 5.72369C24.4058 5.97374 24.5419 6.31288 24.5419 6.6665V16.2265C25.2982 16.502 25.9531 17.0128 26.4164 17.6886C26.8796 18.3645 27.1284 19.172 27.1284 19.9998C27.1284 20.8277 26.8796 21.6352 26.4164 22.311C25.9531 22.9869 25.2982 23.4977 24.5419 23.7732V25.3332C24.5419 25.6868 24.4058 26.0259 24.1636 26.276C23.9214 26.526 23.5928 26.6665 23.2502 26.6665C22.9077 26.6665 22.5791 26.526 22.3369 26.276C22.0947 26.0259 21.9586 25.6868 21.9586 25.3332V23.7732Z" fill="#D9D9D9"/>
</svg>  