<svg width="26.5" height="26.5" viewBox="0 0 23 23" fill="none" xmlns="http://www.w3.org/2000/svg">
    <path d="M11.1465 5.14522L11.5001 5.49877L11.8536 5.14522C12.7521 4.2468 14.2039 3.375 15.8126 3.375C18.4176 3.375 20.5834 5.51568 20.5834 8.625C20.5834 11.7858 18.8927 14.2987 16.8472 16.2274C15.0337 17.9372 12.991 19.1425 11.7027 19.9027C11.6329 19.9439 11.5653 19.9838 11.5001 20.0223C11.4349 19.9838 11.3673 19.9439 11.2975 19.9027C10.0092 19.1425 7.96642 17.9372 6.15298 16.2274C4.10743 14.2987 2.41675 11.7858 2.41675 8.625C2.41675 5.51799 4.61685 3.375 7.18758 3.375C8.79624 3.375 10.2481 4.2468 11.1465 5.14522Z" stroke="#F8F8F8"/>
</svg>