<svg width="1920" height="1080" viewBox="0 0 1920 1080" fill="none" xmlns="http://www.w3.org/2000/svg">
<mask id="path-1-outside-1_56_133" maskUnits="userSpaceOnUse" x="-443.525" y="18.3667" width="2500" height="281" fill="black">
<rect fill="white" x="-443.525" y="18.3667" width="2500" height="281"/>
<path d="M-365.517 292.367V76.0643H-442.712V25.5154H-232.287V76.0643H-309.874V292.367H-365.517ZM-212.48 292.367V25.5154H-30.2689V75.2806H-156.837V132.099H-36.1467V179.905H-156.837V242.601H-27.1341V292.367H-212.48ZM131.232 298.244C50.9027 298.244 -5.13218 239.859 -5.13218 158.745C-5.13218 78.0236 50.9027 19.2458 131.232 19.2458C187.659 19.2458 233.898 46.2836 254.274 97.6162L200.198 118.776C189.226 88.2117 163.756 70.5784 131.232 70.5784C83.4264 70.1865 54.0375 109.372 54.0375 158.745C54.0375 208.51 83.4264 247.696 131.232 247.304C163.756 247.304 189.618 229.279 200.59 198.322L254.666 219.482C234.289 270.815 188.051 298.244 131.232 298.244ZM280.32 292.367V25.5154H335.963V130.532H452.735V25.5154H508.378V292.367H452.735V181.864H335.963V292.367H280.32ZM747.022 298.244C666.692 298.244 610.657 239.859 610.657 158.745C610.657 78.0236 666.692 19.2458 747.022 19.2458C803.449 19.2458 849.687 46.2836 870.063 97.6162L815.988 118.776C805.016 88.2117 779.546 70.5784 747.022 70.5784C699.216 70.1865 669.827 109.372 669.827 158.745C669.827 208.51 699.216 247.696 747.022 247.304C779.546 247.304 805.408 229.279 816.38 198.322L870.455 219.482C850.079 270.815 803.84 298.244 747.022 298.244ZM896.109 292.367V25.5154H951.752V292.367H896.109ZM991.929 292.367V25.5154H1100.08C1153.76 25.5154 1188.25 57.2554 1188.25 106.237C1188.25 148.557 1160.43 176.378 1120.07 182.648L1211.76 291.191V292.367H1141.62L1047.96 178.338H1047.57V292.367H991.929ZM1094.2 72.9295H1047.57V143.855H1094.2C1117.32 143.855 1132.21 129.748 1132.21 107.804C1132.21 86.2525 1116.93 72.9295 1094.2 72.9295ZM1361.66 298.244C1281.33 298.244 1225.3 239.859 1225.3 158.745C1225.3 78.0236 1281.33 19.2458 1361.66 19.2458C1418.09 19.2458 1464.33 46.2836 1484.7 97.6162L1430.63 118.776C1419.66 88.2117 1394.19 70.5784 1361.66 70.5784C1313.86 70.1865 1284.47 109.372 1284.47 158.745C1284.47 208.51 1313.86 247.696 1361.66 247.304C1394.19 247.304 1420.05 229.279 1431.02 198.322L1485.1 219.482C1464.72 270.815 1418.48 298.244 1361.66 298.244ZM1620.08 298.244C1553.07 298.244 1507.62 253.965 1507.62 185.391V25.5154H1564.04V181.473C1564.04 220.266 1584.42 247.304 1620.08 247.304C1655.34 247.304 1676.11 220.658 1676.11 181.473V25.5154H1732.54V185.391C1732.54 253.965 1686.69 298.244 1620.08 298.244ZM1769.97 292.367V25.5154H1825.61V292.367H1769.97ZM1922.61 292.367V76.0643H1845.41V25.5154H2055.84V76.0643H1978.25V292.367H1922.61Z"/>
</mask>
<path d="M-365.517 292.367H-365.87V292.72H-365.517V292.367ZM-365.517 76.0643H-365.163V75.7106H-365.517V76.0643ZM-442.712 76.0643H-443.065V76.4181H-442.712V76.0643ZM-442.712 25.5154V25.1616H-443.065V25.5154H-442.712ZM-232.287 25.5154H-231.933V25.1616H-232.287V25.5154ZM-232.287 76.0643V76.4181H-231.933V76.0643H-232.287ZM-309.874 76.0643V75.7106H-310.227V76.0643H-309.874ZM-309.874 292.367V292.72H-309.52V292.367H-309.874ZM-365.163 292.367V76.0643H-365.87V292.367H-365.163ZM-365.517 75.7106H-442.712V76.4181H-365.517V75.7106ZM-442.358 76.0643V25.5154H-443.065V76.0643H-442.358ZM-442.712 25.8691H-232.287V25.1616H-442.712V25.8691ZM-232.641 25.5154V76.0643H-231.933V25.5154H-232.641ZM-232.287 75.7106H-309.874V76.4181H-232.287V75.7106ZM-310.227 76.0643V292.367H-309.52V76.0643H-310.227ZM-309.874 292.013H-365.517V292.72H-309.874V292.013ZM-212.48 292.367H-212.834V292.72H-212.48V292.367ZM-212.48 25.5154V25.1616H-212.834V25.5154H-212.48ZM-30.2689 25.5154H-29.9151V25.1616H-30.2689V25.5154ZM-30.2689 75.2806V75.6344H-29.9151V75.2806H-30.2689ZM-156.837 75.2806V74.9269H-157.191V75.2806H-156.837ZM-156.837 132.099H-157.191V132.453H-156.837V132.099ZM-36.1467 132.099H-35.7929V131.745H-36.1467V132.099ZM-36.1467 179.905V180.259H-35.7929V179.905H-36.1467ZM-156.837 179.905V179.551H-157.191V179.905H-156.837ZM-156.837 242.601H-157.191V242.955H-156.837V242.601ZM-27.1341 242.601H-26.7803V242.248H-27.1341V242.601ZM-27.1341 292.367V292.72H-26.7803V292.367H-27.1341ZM-212.126 292.367V25.5154H-212.834V292.367H-212.126ZM-212.48 25.8691H-30.2689V25.1616H-212.48V25.8691ZM-30.6226 25.5154V75.2806H-29.9151V25.5154H-30.6226ZM-30.2689 74.9269H-156.837V75.6344H-30.2689V74.9269ZM-157.191 75.2806V132.099H-156.483V75.2806H-157.191ZM-156.837 132.453H-36.1467V131.745H-156.837V132.453ZM-36.5004 132.099V179.905H-35.7929V132.099H-36.5004ZM-36.1467 179.551H-156.837V180.259H-36.1467V179.551ZM-157.191 179.905V242.601H-156.483V179.905H-157.191ZM-156.837 242.955H-27.1341V242.248H-156.837V242.955ZM-27.4878 242.601V292.367H-26.7803V242.601H-27.4878ZM-27.1341 292.013H-212.48V292.72H-27.1341V292.013ZM254.274 97.6162L254.403 97.9456L254.734 97.8161L254.603 97.4857L254.274 97.6162ZM200.198 118.776L199.865 118.896L199.988 119.238L200.327 119.106L200.198 118.776ZM131.232 70.5784L131.229 70.9321H131.232V70.5784ZM131.232 247.304V246.95H131.229L131.232 247.304ZM200.59 198.322L200.719 197.993L200.379 197.86L200.257 198.204L200.59 198.322ZM254.666 219.482L254.995 219.613L255.126 219.282L254.795 219.153L254.666 219.482ZM131.232 297.891C91.1564 297.891 57.1589 283.328 33.1801 258.666C9.2005 234.002 -4.77844 199.219 -4.77844 158.745H-5.48593C-5.48593 199.385 8.55255 234.351 32.6728 259.159C56.7939 283.968 90.9787 298.598 131.232 298.598V297.891ZM-4.77844 158.745C-4.77844 78.2088 51.108 19.5995 131.232 19.5995V18.892C50.6973 18.892 -5.48593 77.8383 -5.48593 158.745H-4.77844ZM131.232 19.5995C187.537 19.5995 233.63 46.5692 253.945 97.7467L254.603 97.4857C234.165 45.998 187.781 18.892 131.232 18.892V19.5995ZM254.145 97.2868L200.069 118.447L200.327 119.106L254.403 97.9456L254.145 97.2868ZM200.531 118.657C189.508 87.9494 163.903 70.2246 131.232 70.2246V70.9321C163.609 70.9321 188.945 88.4741 199.865 118.896L200.531 118.657ZM131.235 70.2246C107.226 70.0278 87.827 79.773 74.4364 95.7728C61.051 111.766 53.6837 133.991 53.6837 158.745H54.3912C54.3912 134.126 61.7184 112.071 74.9789 96.2268C88.2344 80.3886 107.433 70.7371 131.229 70.9321L131.235 70.2246ZM53.6837 158.745C53.6837 183.695 61.0507 206.017 74.436 222.06C87.8267 238.109 107.226 247.854 131.235 247.657L131.229 246.95C107.433 247.145 88.2346 237.494 74.9793 221.607C61.7188 205.714 54.3912 183.561 54.3912 158.745H53.6837ZM131.232 247.657C163.905 247.657 189.901 229.539 200.924 198.44L200.257 198.204C189.335 229.018 163.607 246.95 131.232 246.95V247.657ZM200.461 198.652L254.537 219.812L254.795 219.153L200.719 197.993L200.461 198.652ZM254.337 219.352C234.022 270.53 187.928 297.891 131.232 297.891V298.598C188.174 298.598 234.557 271.099 254.995 219.613L254.337 219.352ZM280.32 292.367H279.966V292.72H280.32V292.367ZM280.32 25.5154V25.1616H279.966V25.5154H280.32ZM335.963 25.5154H336.317V25.1616H335.963V25.5154ZM335.963 130.532H335.609V130.886H335.963V130.532ZM452.735 130.532V130.886H453.089V130.532H452.735ZM452.735 25.5154V25.1616H452.381V25.5154H452.735ZM508.378 25.5154H508.732V25.1616H508.378V25.5154ZM508.378 292.367V292.72H508.732V292.367H508.378ZM452.735 292.367H452.381V292.72H452.735V292.367ZM452.735 181.864H453.089V181.511H452.735V181.864ZM335.963 181.864V181.511H335.609V181.864H335.963ZM335.963 292.367V292.72H336.317V292.367H335.963ZM280.674 292.367V25.5154H279.966V292.367H280.674ZM280.32 25.8691H335.963V25.1616H280.32V25.8691ZM335.609 25.5154V130.532H336.317V25.5154H335.609ZM335.963 130.886H452.735V130.178H335.963V130.886ZM453.089 130.532V25.5154H452.381V130.532H453.089ZM452.735 25.8691H508.378V25.1616H452.735V25.8691ZM508.024 25.5154V292.367H508.732V25.5154H508.024ZM508.378 292.013H452.735V292.72H508.378V292.013ZM453.089 292.367V181.864H452.381V292.367H453.089ZM452.735 181.511H335.963V182.218H452.735V181.511ZM335.609 181.864V292.367H336.317V181.864H335.609ZM335.963 292.013H280.32V292.72H335.963V292.013ZM870.063 97.6162L870.192 97.9456L870.523 97.8161L870.392 97.4857L870.063 97.6162ZM815.988 118.776L815.655 118.896L815.778 119.238L816.117 119.106L815.988 118.776ZM747.022 70.5784L747.019 70.9321H747.022V70.5784ZM747.022 247.304V246.95H747.019L747.022 247.304ZM816.38 198.322L816.509 197.993L816.168 197.86L816.046 198.204L816.38 198.322ZM870.455 219.482L870.784 219.613L870.915 219.282L870.584 219.153L870.455 219.482ZM747.022 297.891C706.946 297.891 672.948 283.328 648.969 258.666C624.99 234.002 611.011 199.219 611.011 158.745H610.303C610.303 199.385 624.342 234.351 648.462 259.159C672.583 283.968 706.768 298.598 747.022 298.598V297.891ZM611.011 158.745C611.011 78.2088 666.897 19.5995 747.022 19.5995V18.892C666.487 18.892 610.303 77.8383 610.303 158.745H611.011ZM747.022 19.5995C803.327 19.5995 849.42 46.5692 869.734 97.7467L870.392 97.4857C849.954 45.998 803.57 18.892 747.022 18.892V19.5995ZM869.934 97.2868L815.859 118.447L816.117 119.106L870.192 97.9456L869.934 97.2868ZM816.321 118.657C805.298 87.9494 779.692 70.2246 747.022 70.2246V70.9321C779.399 70.9321 804.734 88.4741 815.655 118.896L816.321 118.657ZM747.025 70.2246C723.016 70.0278 703.616 79.773 690.226 95.7728C676.84 111.766 669.473 133.991 669.473 158.745H670.181C670.181 134.126 677.508 112.071 690.768 96.2268C704.024 80.3886 723.222 70.7371 747.019 70.9321L747.025 70.2246ZM669.473 158.745C669.473 183.695 676.84 206.017 690.225 222.06C703.616 238.109 723.015 247.854 747.025 247.657L747.019 246.95C723.222 247.145 704.024 237.494 690.769 221.607C677.508 205.714 670.181 183.561 670.181 158.745H669.473ZM747.022 247.657C779.694 247.657 805.691 229.539 816.713 198.44L816.046 198.204C805.125 229.018 779.397 246.95 747.022 246.95V247.657ZM816.251 198.652L870.326 219.812L870.584 219.153L816.509 197.993L816.251 198.652ZM870.126 219.352C849.811 270.53 803.717 297.891 747.022 297.891V298.598C803.964 298.598 850.347 271.099 870.784 219.613L870.126 219.352ZM896.109 292.367H895.755V292.72H896.109V292.367ZM896.109 25.5154V25.1616H895.755V25.5154H896.109ZM951.752 25.5154H952.106V25.1616H951.752V25.5154ZM951.752 292.367V292.72H952.106V292.367H951.752ZM896.463 292.367V25.5154H895.755V292.367H896.463ZM896.109 25.8691H951.752V25.1616H896.109V25.8691ZM951.399 25.5154V292.367H952.106V25.5154H951.399ZM951.752 292.013H896.109V292.72H951.752V292.013ZM991.929 292.367H991.576V292.72H991.929V292.367ZM991.929 25.5154V25.1616H991.576V25.5154H991.929ZM1120.07 182.648L1120.01 182.299L1119.39 182.395L1119.79 182.876L1120.07 182.648ZM1211.76 291.191H1212.11V291.062L1212.03 290.963L1211.76 291.191ZM1211.76 292.367V292.72H1212.11V292.367H1211.76ZM1141.62 292.367L1141.34 292.591L1141.45 292.72H1141.62V292.367ZM1047.96 178.338L1048.24 178.113L1048.13 177.984H1047.96V178.338ZM1047.57 178.338V177.984H1047.22V178.338H1047.57ZM1047.57 292.367V292.72H1047.93V292.367H1047.57ZM1047.57 72.9295V72.5758H1047.22V72.9295H1047.57ZM1047.57 143.855H1047.22V144.208H1047.57V143.855ZM992.283 292.367V25.5154H991.576V292.367H992.283ZM991.929 25.8691H1100.08V25.1616H991.929V25.8691ZM1100.08 25.8691C1126.85 25.8691 1148.8 33.783 1164.06 47.7688C1179.31 61.7518 1187.89 81.8332 1187.89 106.237H1188.6C1188.6 81.6591 1179.95 61.3798 1164.53 47.2474C1149.12 33.1178 1126.99 25.1616 1100.08 25.1616V25.8691ZM1187.89 106.237C1187.89 127.315 1180.97 144.763 1169.03 157.722C1157.09 170.683 1140.13 179.174 1120.01 182.299L1120.12 182.998C1140.37 179.853 1157.49 171.298 1169.55 158.201C1181.62 145.102 1188.6 127.478 1188.6 106.237H1187.89ZM1119.79 182.876L1211.49 291.419L1212.03 290.963L1120.34 182.42L1119.79 182.876ZM1211.4 291.191V292.367H1212.11V291.191H1211.4ZM1211.76 292.013H1141.62V292.72H1211.76V292.013ZM1141.89 292.142L1048.24 178.113L1047.69 178.562L1141.34 292.591L1141.89 292.142ZM1047.96 177.984H1047.57V178.691H1047.96V177.984ZM1047.22 178.338V292.367H1047.93V178.338H1047.22ZM1047.57 292.013H991.929V292.72H1047.57V292.013ZM1094.2 72.5758H1047.57V73.2833H1094.2V72.5758ZM1047.22 72.9295V143.855H1047.93V72.9295H1047.22ZM1047.57 144.208H1094.2V143.501H1047.57V144.208ZM1094.2 144.208C1105.83 144.208 1115.43 140.659 1122.12 134.315C1128.81 127.97 1132.57 118.859 1132.57 107.804H1131.86C1131.86 118.693 1128.17 127.608 1121.63 133.802C1115.1 139.997 1105.69 143.501 1094.2 143.501V144.208ZM1132.57 107.804C1132.57 96.9401 1128.71 88.1219 1121.97 82.0226C1115.23 75.927 1105.63 72.5758 1094.2 72.5758V73.2833C1105.5 73.2833 1114.91 76.5936 1121.49 82.5473C1128.07 88.4976 1131.86 97.1167 1131.86 107.804H1132.57ZM1484.7 97.6162L1484.83 97.9456L1485.16 97.8161L1485.03 97.4857L1484.7 97.6162ZM1430.63 118.776L1430.3 118.896L1430.42 119.238L1430.76 119.106L1430.63 118.776ZM1361.66 70.5784L1361.66 70.9321H1361.66V70.5784ZM1361.66 247.304V246.95H1361.66L1361.66 247.304ZM1431.02 198.322L1431.15 197.993L1430.81 197.86L1430.69 198.204L1431.02 198.322ZM1485.1 219.482L1485.43 219.613L1485.56 219.282L1485.23 219.153L1485.1 219.482ZM1361.66 297.891C1321.59 297.891 1287.59 283.328 1263.61 258.666C1239.63 234.002 1225.65 199.219 1225.65 158.745H1224.94C1224.94 199.385 1238.98 234.351 1263.1 259.159C1287.22 283.968 1321.41 298.598 1361.66 298.598V297.891ZM1225.65 158.745C1225.65 78.2088 1281.54 19.5995 1361.66 19.5995V18.892C1281.13 18.892 1224.94 77.8383 1224.94 158.745H1225.65ZM1361.66 19.5995C1417.97 19.5995 1464.06 46.5692 1484.38 97.7467L1485.03 97.4857C1464.6 45.998 1418.21 18.892 1361.66 18.892V19.5995ZM1484.58 97.2868L1430.5 118.447L1430.76 119.106L1484.83 97.9456L1484.58 97.2868ZM1430.96 118.657C1419.94 87.9494 1394.33 70.2246 1361.66 70.2246V70.9321C1394.04 70.9321 1419.38 88.4741 1430.3 118.896L1430.96 118.657ZM1361.67 70.2246C1337.66 70.0278 1318.26 79.773 1304.87 95.7728C1291.48 111.766 1284.11 133.991 1284.11 158.745H1284.82C1284.82 134.126 1292.15 112.071 1305.41 96.2268C1318.67 80.3886 1337.86 70.7371 1361.66 70.9321L1361.67 70.2246ZM1284.11 158.745C1284.11 183.695 1291.48 206.017 1304.87 222.06C1318.26 238.109 1337.66 247.854 1361.67 247.657L1361.66 246.95C1337.86 247.145 1318.67 237.494 1305.41 221.607C1292.15 205.714 1284.82 183.561 1284.82 158.745H1284.11ZM1361.66 247.657C1394.34 247.657 1420.33 229.539 1431.35 198.44L1430.69 198.204C1419.77 229.018 1394.04 246.95 1361.66 246.95V247.657ZM1430.89 198.652L1484.97 219.812L1485.23 219.153L1431.15 197.993L1430.89 198.652ZM1484.77 219.352C1464.45 270.53 1418.36 297.891 1361.66 297.891V298.598C1418.6 298.598 1464.99 271.099 1485.43 219.613L1484.77 219.352ZM1507.62 25.5154V25.1616H1507.26V25.5154H1507.62ZM1564.04 25.5154H1564.4V25.1616H1564.04V25.5154ZM1676.11 25.5154V25.1616H1675.76V25.5154H1676.11ZM1732.54 25.5154H1732.89V25.1616H1732.54V25.5154ZM1620.08 297.891C1586.65 297.891 1558.63 286.849 1538.97 267.282C1519.31 247.716 1507.97 219.598 1507.97 185.391H1507.26C1507.26 219.758 1518.65 248.067 1538.47 267.784C1558.28 287.501 1586.49 298.598 1620.08 298.598V297.891ZM1507.97 185.391V25.5154H1507.26V185.391H1507.97ZM1507.62 25.8691H1564.04V25.1616H1507.62V25.8691ZM1563.69 25.5154V181.473H1564.4V25.5154H1563.69ZM1563.69 181.473C1563.69 200.927 1568.8 217.472 1578.41 229.16C1588.04 240.857 1602.15 247.657 1620.08 247.657V246.95C1602.35 246.95 1588.44 240.232 1578.96 228.711C1569.48 217.182 1564.4 200.811 1564.4 181.473H1563.69ZM1620.08 247.657C1637.81 247.657 1651.92 240.955 1661.59 229.309C1671.26 217.669 1676.47 201.124 1676.47 181.473H1675.76C1675.76 201.006 1670.58 217.376 1661.05 228.857C1651.52 240.329 1637.61 246.95 1620.08 246.95V247.657ZM1676.47 181.473V25.5154H1675.76V181.473H1676.47ZM1676.11 25.8691H1732.54V25.1616H1676.11V25.8691ZM1732.19 25.5154V185.391H1732.89V25.5154H1732.19ZM1732.19 185.391C1732.19 219.597 1720.75 247.716 1701.04 267.282C1681.33 286.849 1653.31 297.891 1620.08 297.891V298.598C1653.46 298.598 1681.67 287.5 1701.54 267.784C1721.4 248.067 1732.89 219.759 1732.89 185.391H1732.19ZM1769.97 292.367H1769.62V292.72H1769.97V292.367ZM1769.97 25.5154V25.1616H1769.62V25.5154H1769.97ZM1825.61 25.5154H1825.97V25.1616H1825.61V25.5154ZM1825.61 292.367V292.72H1825.97V292.367H1825.61ZM1770.32 292.367V25.5154H1769.62V292.367H1770.32ZM1769.97 25.8691H1825.61V25.1616H1769.97V25.8691ZM1825.26 25.5154V292.367H1825.97V25.5154H1825.26ZM1825.61 292.013H1769.97V292.72H1825.61V292.013ZM1922.61 292.367H1922.26V292.72H1922.61V292.367ZM1922.61 76.0643H1922.96V75.7106H1922.61V76.0643ZM1845.41 76.0643H1845.06V76.4181H1845.41V76.0643ZM1845.41 25.5154V25.1616H1845.06V25.5154H1845.41ZM2055.84 25.5154H2056.19V25.1616H2055.84V25.5154ZM2055.84 76.0643V76.4181H2056.19V76.0643H2055.84ZM1978.25 76.0643V75.7106H1977.9V76.0643H1978.25ZM1978.25 292.367V292.72H1978.61V292.367H1978.25ZM1922.96 292.367V76.0643H1922.26V292.367H1922.96ZM1922.61 75.7106H1845.41V76.4181H1922.61V75.7106ZM1845.77 76.0643V25.5154H1845.06V76.0643H1845.77ZM1845.41 25.8691H2055.84V25.1616H1845.41V25.8691ZM2055.48 25.5154V76.0643H2056.19V25.5154H2055.48ZM2055.84 75.7106H1978.25V76.4181H2055.84V75.7106ZM1977.9 76.0643V292.367H1978.61V76.0643H1977.9ZM1978.25 292.013H1922.61V292.72H1978.25V292.013Z" fill="url(#paint0_linear_56_133)" fill-opacity="0.6" mask="url(#path-1-outside-1_56_133)"/>
<mask id="path-3-outside-2_56_133" maskUnits="userSpaceOnUse" x="-967.543" y="749.263" width="2500" height="281" fill="black">
<rect fill="white" x="-967.543" y="749.263" width="2500" height="281"/>
<path d="M-889.534 1023.26V806.961H-966.729V756.412H-756.305V806.961H-833.891V1023.26H-889.534ZM-736.498 1023.26V756.412H-554.286V806.177H-680.855V862.996H-560.164V910.802H-680.855V973.498H-551.152V1023.26H-736.498ZM-392.785 1029.14C-473.115 1029.14 -529.15 970.755 -529.15 889.642C-529.15 808.92 -473.115 750.142 -392.785 750.142C-336.359 750.142 -290.12 777.18 -269.744 828.513L-323.819 849.673C-334.791 819.108 -360.261 801.475 -392.785 801.475C-440.591 801.083 -469.98 840.268 -469.98 889.642C-469.98 939.407 -440.591 978.592 -392.785 978.2C-360.261 978.2 -334.399 960.175 -323.427 929.219L-269.352 950.379C-289.728 1001.71 -335.967 1029.14 -392.785 1029.14ZM-243.698 1023.26V756.412H-188.055V861.428H-71.2828V756.412H-15.6398V1023.26H-71.2828V912.761H-188.055V1023.26H-243.698ZM223.004 1029.14C142.675 1029.14 86.6397 970.755 86.6397 889.642C86.6397 808.92 142.675 750.142 223.004 750.142C279.431 750.142 325.669 777.18 346.046 828.513L291.97 849.673C280.998 819.108 255.528 801.475 223.004 801.475C175.198 801.083 145.809 840.268 145.809 889.642C145.809 939.407 175.198 978.592 223.004 978.2C255.528 978.2 281.39 960.175 292.362 929.219L346.438 950.379C326.061 1001.71 279.823 1029.14 223.004 1029.14ZM372.092 1023.26V756.412H427.735V1023.26H372.092ZM467.912 1023.26V756.412H576.063C629.747 756.412 664.23 788.152 664.23 837.133C664.23 879.453 636.408 907.275 596.047 913.545L687.741 1022.09V1023.26H617.599L523.947 909.234H523.555V1023.26H467.912ZM570.185 803.826H523.555V874.751H570.185C593.304 874.751 608.195 860.645 608.195 838.701C608.195 817.149 592.913 803.826 570.185 803.826ZM837.646 1029.14C757.316 1029.14 701.281 970.755 701.281 889.642C701.281 808.92 757.316 750.142 837.646 750.142C894.072 750.142 940.311 777.18 960.687 828.513L906.612 849.673C895.64 819.108 870.169 801.475 837.646 801.475C789.84 801.083 760.451 840.268 760.451 889.642C760.451 939.407 789.84 978.592 837.646 978.2C870.169 978.2 896.032 960.175 907.004 929.219L961.079 950.379C940.703 1001.71 894.464 1029.14 837.646 1029.14ZM1096.06 1029.14C1029.05 1029.14 983.598 984.862 983.598 916.288V756.412H1040.03V912.369C1040.03 951.162 1060.4 978.2 1096.06 978.2C1131.33 978.2 1152.09 951.554 1152.09 912.369V756.412H1208.52V916.288C1208.52 984.862 1162.67 1029.14 1096.06 1029.14ZM1245.95 1023.26V756.412H1301.6V1023.26H1245.95ZM1398.59 1023.26V806.961H1321.4V756.412H1531.82V806.961H1454.23V1023.26H1398.59Z"/>
</mask>
<path d="M-889.534 1023.26H-889.888V1023.62H-889.534V1023.26ZM-889.534 806.961H-889.181V806.607H-889.534V806.961ZM-966.729 806.961H-967.083V807.315H-966.729V806.961ZM-966.729 756.412V756.058H-967.083V756.412H-966.729ZM-756.305 756.412H-755.951V756.058H-756.305V756.412ZM-756.305 806.961V807.315H-755.951V806.961H-756.305ZM-833.891 806.961V806.607H-834.245V806.961H-833.891ZM-833.891 1023.26V1023.62H-833.538V1023.26H-833.891ZM-889.181 1023.26V806.961H-889.888V1023.26H-889.181ZM-889.534 806.607H-966.729V807.315H-889.534V806.607ZM-966.375 806.961V756.412H-967.083V806.961H-966.375ZM-966.729 756.766H-756.305V756.058H-966.729V756.766ZM-756.658 756.412V806.961H-755.951V756.412H-756.658ZM-756.305 806.607H-833.891V807.315H-756.305V806.607ZM-834.245 806.961V1023.26H-833.538V806.961H-834.245ZM-833.891 1022.91H-889.534V1023.62H-833.891V1022.91ZM-736.498 1023.26H-736.851V1023.62H-736.498V1023.26ZM-736.498 756.412V756.058H-736.851V756.412H-736.498ZM-554.286 756.412H-553.933V756.058H-554.286V756.412ZM-554.286 806.177V806.531H-553.933V806.177H-554.286ZM-680.855 806.177V805.823H-681.208V806.177H-680.855ZM-680.855 862.996H-681.208V863.349H-680.855V862.996ZM-560.164 862.996H-559.81V862.642H-560.164V862.996ZM-560.164 910.802V911.155H-559.81V910.802H-560.164ZM-680.855 910.802V910.448H-681.208V910.802H-680.855ZM-680.855 973.498H-681.208V973.852H-680.855V973.498ZM-551.152 973.498H-550.798V973.144H-551.152V973.498ZM-551.152 1023.26V1023.62H-550.798V1023.26H-551.152ZM-736.144 1023.26V756.412H-736.851V1023.26H-736.144ZM-736.498 756.766H-554.286V756.058H-736.498V756.766ZM-554.64 756.412V806.177H-553.933V756.412H-554.64ZM-554.286 805.823H-680.855V806.531H-554.286V805.823ZM-681.208 806.177V862.996H-680.501V806.177H-681.208ZM-680.855 863.349H-560.164V862.642H-680.855V863.349ZM-560.518 862.996V910.802H-559.81V862.996H-560.518ZM-560.164 910.448H-680.855V911.155H-560.164V910.448ZM-681.208 910.802V973.498H-680.501V910.802H-681.208ZM-680.855 973.852H-551.152V973.144H-680.855V973.852ZM-551.505 973.498V1023.26H-550.798V973.498H-551.505ZM-551.152 1022.91H-736.498V1023.62H-551.152V1022.91ZM-269.744 828.513L-269.615 828.842L-269.284 828.713L-269.415 828.382L-269.744 828.513ZM-323.819 849.673L-324.152 849.792L-324.029 850.135L-323.69 850.002L-323.819 849.673ZM-392.785 801.475L-392.788 801.829H-392.785V801.475ZM-392.785 978.2V977.846H-392.788L-392.785 978.2ZM-323.427 929.219L-323.298 928.889L-323.639 928.756L-323.761 929.1L-323.427 929.219ZM-269.352 950.379L-269.023 950.509L-268.892 950.179L-269.223 950.049L-269.352 950.379ZM-392.785 1028.79C-432.861 1028.79 -466.859 1014.22 -490.837 989.562C-514.817 964.899 -528.796 930.115 -528.796 889.642H-529.504C-529.504 930.281 -515.465 965.247 -491.345 990.055C-467.224 1014.86 -433.039 1029.49 -392.785 1029.49V1028.79ZM-528.796 889.642C-528.796 809.105 -472.91 750.496 -392.785 750.496V749.788C-473.32 749.788 -529.504 808.735 -529.504 889.642H-528.796ZM-392.785 750.496C-336.48 750.496 -290.387 777.466 -270.072 828.643L-269.415 828.382C-289.853 776.894 -336.237 749.788 -392.785 749.788V750.496ZM-269.873 828.183L-323.948 849.343L-323.69 850.002L-269.615 828.842L-269.873 828.183ZM-323.486 849.553C-334.509 818.846 -360.115 801.121 -392.785 801.121V801.829C-360.408 801.829 -335.073 819.371 -324.152 849.792L-323.486 849.553ZM-392.782 801.121C-416.792 800.924 -436.191 810.67 -449.581 826.669C-462.967 842.663 -470.334 864.887 -470.334 889.642H-469.626C-469.626 865.022 -462.299 842.968 -449.039 827.123C-435.783 811.285 -416.585 801.634 -392.788 801.829L-392.782 801.121ZM-470.334 889.642C-470.334 914.591 -462.967 936.914 -449.582 952.956C-436.191 969.005 -416.792 978.751 -392.782 978.554L-392.788 977.846C-416.585 978.042 -435.783 968.39 -449.038 952.503C-462.299 936.61 -469.626 914.457 -469.626 889.642H-470.334ZM-392.785 978.554C-360.113 978.554 -334.116 960.435 -323.094 929.337L-323.761 929.1C-334.682 959.915 -360.41 977.846 -392.785 977.846V978.554ZM-323.556 929.548L-269.481 950.708L-269.223 950.049L-323.298 928.889L-323.556 929.548ZM-269.681 950.248C-289.996 1001.43 -336.09 1028.79 -392.785 1028.79V1029.49C-335.843 1029.49 -289.46 1002 -269.023 950.509L-269.681 950.248ZM-243.698 1023.26H-244.052V1023.62H-243.698V1023.26ZM-243.698 756.412V756.058H-244.052V756.412H-243.698ZM-188.055 756.412H-187.701V756.058H-188.055V756.412ZM-188.055 861.428H-188.409V861.782H-188.055V861.428ZM-71.2828 861.428V861.782H-70.9291V861.428H-71.2828ZM-71.2828 756.412V756.058H-71.6366V756.412H-71.2828ZM-15.6398 756.412H-15.2861V756.058H-15.6398V756.412ZM-15.6398 1023.26V1023.62H-15.2861V1023.26H-15.6398ZM-71.2828 1023.26H-71.6366V1023.62H-71.2828V1023.26ZM-71.2828 912.761H-70.9291V912.407H-71.2828V912.761ZM-188.055 912.761V912.407H-188.409V912.761H-188.055ZM-188.055 1023.26V1023.62H-187.701V1023.26H-188.055ZM-243.344 1023.26V756.412H-244.052V1023.26H-243.344ZM-243.698 756.766H-188.055V756.058H-243.698V756.766ZM-188.409 756.412V861.428H-187.701V756.412H-188.409ZM-188.055 861.782H-71.2828V861.074H-188.055V861.782ZM-70.9291 861.428V756.412H-71.6366V861.428H-70.9291ZM-71.2828 756.766H-15.6398V756.058H-71.2828V756.766ZM-15.9936 756.412V1023.26H-15.2861V756.412H-15.9936ZM-15.6398 1022.91H-71.2828V1023.62H-15.6398V1022.91ZM-70.9291 1023.26V912.761H-71.6366V1023.26H-70.9291ZM-71.2828 912.407H-188.055V913.115H-71.2828V912.407ZM-188.409 912.761V1023.26H-187.701V912.761H-188.409ZM-188.055 1022.91H-243.698V1023.62H-188.055V1022.91ZM346.046 828.513L346.175 828.842L346.506 828.713L346.375 828.382L346.046 828.513ZM291.97 849.673L291.637 849.792L291.76 850.135L292.099 850.002L291.97 849.673ZM223.004 801.475L223.001 801.829H223.004V801.475ZM223.004 978.2V977.846H223.001L223.004 978.2ZM292.362 929.219L292.491 928.889L292.151 928.756L292.029 929.1L292.362 929.219ZM346.438 950.379L346.766 950.509L346.898 950.179L346.567 950.049L346.438 950.379ZM223.004 1028.79C182.928 1028.79 148.931 1014.22 124.952 989.562C100.972 964.899 86.9934 930.115 86.9934 889.642H86.2859C86.2859 930.281 100.324 965.247 124.445 990.055C148.566 1014.86 182.75 1029.49 223.004 1029.49V1028.79ZM86.9934 889.642C86.9934 809.105 142.88 750.496 223.004 750.496V749.788C142.469 749.788 86.2859 808.735 86.2859 889.642H86.9934ZM223.004 750.496C279.309 750.496 325.402 777.466 345.717 828.643L346.375 828.382C325.937 776.894 279.553 749.788 223.004 749.788V750.496ZM345.917 828.183L291.841 849.343L292.099 850.002L346.175 828.842L345.917 828.183ZM292.303 849.553C281.28 818.846 255.675 801.121 223.004 801.121V801.829C255.381 801.829 280.717 819.371 291.637 849.792L292.303 849.553ZM223.007 801.121C198.998 800.924 179.599 810.67 166.208 826.669C152.823 842.663 145.456 864.887 145.456 889.642H146.163C146.163 865.022 153.49 842.968 166.751 827.123C180.006 811.285 199.205 801.634 223.001 801.829L223.007 801.121ZM145.456 889.642C145.456 914.591 152.823 936.914 166.208 952.956C179.599 969.005 198.998 978.751 223.007 978.554L223.001 977.846C199.205 978.042 180.006 968.39 166.751 952.503C153.491 936.61 146.163 914.457 146.163 889.642H145.456ZM223.004 978.554C255.677 978.554 281.673 960.435 292.695 929.337L292.029 929.1C281.107 959.915 255.379 977.846 223.004 977.846V978.554ZM292.233 929.548L346.309 950.708L346.567 950.049L292.491 928.889L292.233 929.548ZM346.109 950.248C325.794 1001.43 279.7 1028.79 223.004 1028.79V1029.49C279.946 1029.49 326.329 1002 346.766 950.509L346.109 950.248ZM372.092 1023.26H371.738V1023.62H372.092V1023.26ZM372.092 756.412V756.058H371.738V756.412H372.092ZM427.735 756.412H428.089V756.058H427.735V756.412ZM427.735 1023.26V1023.62H428.089V1023.26H427.735ZM372.445 1023.26V756.412H371.738V1023.26H372.445ZM372.092 756.766H427.735V756.058H372.092V756.766ZM427.381 756.412V1023.26H428.089V756.412H427.381ZM427.735 1022.91H372.092V1023.62H427.735V1022.91ZM467.912 1023.26H467.558V1023.62H467.912V1023.26ZM467.912 756.412V756.058H467.558V756.412H467.912ZM596.047 913.545L595.993 913.195L595.371 913.292L595.777 913.773L596.047 913.545ZM687.741 1022.09H688.095V1021.96L688.011 1021.86L687.741 1022.09ZM687.741 1023.26V1023.62H688.095V1023.26H687.741ZM617.599 1023.26L617.326 1023.49L617.432 1023.62H617.599V1023.26ZM523.947 909.234L524.22 909.01L524.114 908.88H523.947V909.234ZM523.555 909.234V908.88H523.201V909.234H523.555ZM523.555 1023.26V1023.62H523.909V1023.26H523.555ZM523.555 803.826V803.472H523.201V803.826H523.555ZM523.555 874.751H523.201V875.105H523.555V874.751ZM468.266 1023.26V756.412H467.558V1023.26H468.266ZM467.912 756.766H576.063V756.058H467.912V756.766ZM576.063 756.766C602.836 756.766 624.786 764.68 640.039 778.665C655.288 792.648 663.876 812.73 663.876 837.133H664.583C664.583 812.556 655.93 792.276 640.517 778.144C625.107 764.014 602.974 756.058 576.063 756.058V756.766ZM663.876 837.133C663.876 858.212 656.949 875.66 645.014 888.618C633.076 901.579 616.108 910.07 595.993 913.195L596.102 913.894C616.348 910.749 633.471 902.195 645.534 889.098C657.599 875.998 664.583 858.375 664.583 837.133H663.876ZM595.777 913.773L687.471 1022.32L688.011 1021.86L596.318 913.316L595.777 913.773ZM687.387 1022.09V1023.26H688.095V1022.09H687.387ZM687.741 1022.91H617.599V1023.62H687.741V1022.91ZM617.873 1023.04L524.22 909.01L523.673 909.459L617.326 1023.49L617.873 1023.04ZM523.947 908.88H523.555V909.588H523.947V908.88ZM523.201 909.234V1023.26H523.909V909.234H523.201ZM523.555 1022.91H467.912V1023.62H523.555V1022.91ZM570.185 803.472H523.555V804.18H570.185V803.472ZM523.201 803.826V874.751H523.909V803.826H523.201ZM523.555 875.105H570.185V874.397H523.555V875.105ZM570.185 875.105C581.817 875.105 591.412 871.555 598.103 865.212C604.796 858.866 608.549 849.756 608.549 838.701H607.841C607.841 849.59 604.149 858.505 597.616 864.698C591.082 870.894 581.673 874.397 570.185 874.397V875.105ZM608.549 838.701C608.549 827.837 604.694 819.018 597.95 812.919C591.21 806.823 581.617 803.472 570.185 803.472V804.18C581.481 804.18 590.892 807.49 597.475 813.444C604.055 819.394 607.841 828.013 607.841 838.701H608.549ZM960.687 828.513L960.816 828.842L961.147 828.713L961.016 828.382L960.687 828.513ZM906.612 849.673L906.279 849.792L906.402 850.135L906.741 850.002L906.612 849.673ZM837.646 801.475L837.643 801.829H837.646V801.475ZM837.646 978.2V977.846H837.643L837.646 978.2ZM907.004 929.219L907.132 928.889L906.792 928.756L906.67 929.1L907.004 929.219ZM961.079 950.379L961.408 950.509L961.539 950.179L961.208 950.049L961.079 950.379ZM837.646 1028.79C797.57 1028.79 763.572 1014.22 739.593 989.562C715.614 964.899 701.635 930.115 701.635 889.642H700.927C700.927 930.281 714.966 965.247 739.086 990.055C763.207 1014.86 797.392 1029.49 837.646 1029.49V1028.79ZM701.635 889.642C701.635 809.105 757.521 750.496 837.646 750.496V749.788C757.111 749.788 700.927 808.735 700.927 889.642H701.635ZM837.646 750.496C893.951 750.496 940.044 777.466 960.358 828.643L961.016 828.382C940.578 776.894 894.194 749.788 837.646 749.788V750.496ZM960.558 828.183L906.483 849.343L906.741 850.002L960.816 828.842L960.558 828.183ZM906.945 849.553C895.922 818.846 870.316 801.121 837.646 801.121V801.829C870.023 801.829 895.358 819.371 906.279 849.792L906.945 849.553ZM837.649 801.121C813.639 800.924 794.24 810.67 780.85 826.669C767.464 842.663 760.097 864.887 760.097 889.642H760.805C760.805 865.022 768.132 842.968 781.392 827.123C794.648 811.285 813.846 801.634 837.643 801.829L837.649 801.121ZM760.097 889.642C760.097 914.591 767.464 936.914 780.849 952.956C794.24 969.005 813.639 978.751 837.649 978.554L837.643 977.846C813.846 978.042 794.648 968.39 781.393 952.503C768.132 936.61 760.805 914.457 760.805 889.642H760.097ZM837.646 978.554C870.318 978.554 896.315 960.435 907.337 929.337L906.67 929.1C895.749 959.915 870.021 977.846 837.646 977.846V978.554ZM906.875 929.548L960.95 950.708L961.208 950.049L907.132 928.889L906.875 929.548ZM960.75 950.248C940.435 1001.43 894.341 1028.79 837.646 1028.79V1029.49C894.587 1029.49 940.97 1002 961.408 950.509L960.75 950.248ZM983.598 756.412V756.058H983.245V756.412H983.598ZM1040.03 756.412H1040.38V756.058H1040.03V756.412ZM1152.09 756.412V756.058H1151.74V756.412H1152.09ZM1208.52 756.412H1208.88V756.058H1208.52V756.412ZM1096.06 1028.79C1062.64 1028.79 1034.61 1017.75 1014.95 998.179C995.288 978.613 983.952 950.495 983.952 916.288H983.245C983.245 950.655 994.636 978.963 1014.45 998.68C1034.27 1018.4 1062.48 1029.49 1096.06 1029.49V1028.79ZM983.952 916.288V756.412H983.245V916.288H983.952ZM983.598 756.766H1040.03V756.058H983.598V756.766ZM1039.67 756.412V912.369H1040.38V756.412H1039.67ZM1039.67 912.369C1039.67 931.824 1044.78 948.369 1054.4 960.057C1064.02 971.753 1078.13 978.554 1096.06 978.554V977.846C1078.33 977.846 1064.42 971.128 1054.94 959.607C1045.46 948.078 1040.38 931.708 1040.38 912.369H1039.67ZM1096.06 978.554C1113.79 978.554 1127.9 971.852 1137.57 960.205C1147.24 948.566 1152.45 932.021 1152.45 912.369H1151.74C1151.74 931.903 1146.56 948.273 1137.03 959.753C1127.5 971.226 1113.6 977.846 1096.06 977.846V978.554ZM1152.45 912.369V756.412H1151.74V912.369H1152.45ZM1152.09 756.766H1208.52V756.058H1152.09V756.766ZM1208.17 756.412V916.288H1208.88V756.412H1208.17ZM1208.17 916.288C1208.17 950.494 1196.73 978.612 1177.02 998.178C1157.31 1017.75 1129.29 1028.79 1096.06 1028.79V1029.49C1129.45 1029.49 1157.66 1018.4 1177.52 998.681C1197.38 978.964 1208.88 950.656 1208.88 916.288H1208.17ZM1245.95 1023.26H1245.6V1023.62H1245.95V1023.26ZM1245.95 756.412V756.058H1245.6V756.412H1245.95ZM1301.6 756.412H1301.95V756.058H1301.6V756.412ZM1301.6 1023.26V1023.62H1301.95V1023.26H1301.6ZM1246.31 1023.26V756.412H1245.6V1023.26H1246.31ZM1245.95 756.766H1301.6V756.058H1245.95V756.766ZM1301.24 756.412V1023.26H1301.95V756.412H1301.24ZM1301.6 1022.91H1245.95V1023.62H1301.6V1022.91ZM1398.59 1023.26H1398.24V1023.62H1398.59V1023.26ZM1398.59 806.961H1398.94V806.607H1398.59V806.961ZM1321.4 806.961H1321.04V807.315H1321.4V806.961ZM1321.4 756.412V756.058H1321.04V756.412H1321.4ZM1531.82 756.412H1532.17V756.058H1531.82V756.412ZM1531.82 806.961V807.315H1532.17V806.961H1531.82ZM1454.23 806.961V806.607H1453.88V806.961H1454.23ZM1454.23 1023.26V1023.62H1454.59V1023.26H1454.23ZM1398.94 1023.26V806.961H1398.24V1023.26H1398.94ZM1398.59 806.607H1321.4V807.315H1398.59V806.607ZM1321.75 806.961V756.412H1321.04V806.961H1321.75ZM1321.4 756.766H1531.82V756.058H1321.4V756.766ZM1531.47 756.412V806.961H1532.17V756.412H1531.47ZM1531.82 806.607H1454.23V807.315H1531.82V806.607ZM1453.88 806.961V1023.26H1454.59V806.961H1453.88ZM1454.23 1022.91H1398.59V1023.62H1454.23V1022.91Z" fill="url(#paint1_linear_56_133)" fill-opacity="0.6" mask="url(#path-3-outside-2_56_133)"/>
<mask id="path-5-outside-3_56_133" maskUnits="userSpaceOnUse" x="-1595" y="373.016" width="2500" height="281" fill="black">
<rect fill="white" x="-1595" y="373.016" width="2500" height="281"/>
<path d="M-1516.99 647.016V430.714H-1594.19V380.165H-1383.76V430.714H-1461.35V647.016H-1516.99ZM-1363.95 647.016V380.165H-1181.74V429.93H-1308.31V486.749H-1187.62V534.555H-1308.31V597.251H-1178.61V647.016H-1363.95ZM-1020.24 652.894C-1100.57 652.894 -1156.61 594.508 -1156.61 513.395C-1156.61 432.673 -1100.57 373.895 -1020.24 373.895C-963.816 373.895 -917.577 400.933 -897.201 452.266L-951.276 473.426C-962.248 442.861 -987.719 425.228 -1020.24 425.228C-1068.05 424.836 -1097.44 464.021 -1097.44 513.395C-1097.44 563.16 -1068.05 602.345 -1020.24 601.953C-987.719 601.953 -961.856 583.928 -950.884 552.972L-896.809 574.132C-917.185 625.464 -963.424 652.894 -1020.24 652.894ZM-871.155 647.016V380.165H-815.512V485.181H-698.74V380.165H-643.097V647.016H-698.74V536.514H-815.512V647.016H-871.155ZM-404.453 652.894C-484.783 652.894 -540.817 594.508 -540.817 513.395C-540.817 432.673 -484.783 373.895 -404.453 373.895C-348.026 373.895 -301.788 400.933 -281.411 452.266L-335.487 473.426C-346.459 442.861 -371.929 425.228 -404.453 425.228C-452.259 424.836 -481.648 464.021 -481.648 513.395C-481.648 563.16 -452.259 602.345 -404.453 601.953C-371.929 601.953 -346.067 583.928 -335.095 552.972L-281.019 574.132C-301.396 625.464 -347.634 652.894 -404.453 652.894ZM-255.365 647.016V380.165H-199.722V647.016H-255.365ZM-159.545 647.016V380.165H-51.3941C2.28969 380.165 36.7727 411.905 36.7727 460.886C36.7727 503.206 8.95117 531.028 -31.4096 537.298L60.2838 645.841V647.016H-9.85773L-103.51 532.987H-103.902V647.016H-159.545ZM-57.2718 427.579H-103.902V498.504H-57.2718C-34.1526 498.504 -19.2622 484.397 -19.2622 462.454C-19.2622 440.902 -34.5444 427.579 -57.2718 427.579ZM210.189 652.894C129.859 652.894 73.8241 594.508 73.8241 513.395C73.8241 432.673 129.859 373.895 210.189 373.895C266.615 373.895 312.854 400.933 333.23 452.266L279.155 473.426C268.183 442.861 242.712 425.228 210.189 425.228C162.383 424.836 132.994 464.021 132.994 513.395C132.994 563.16 162.383 602.345 210.189 601.953C242.712 601.953 268.575 583.928 279.546 552.972L333.622 574.132C313.246 625.464 267.007 652.894 210.189 652.894ZM468.603 652.894C401.596 652.894 356.141 608.615 356.141 540.04V380.165H412.568V536.122C412.568 574.915 432.944 601.953 468.603 601.953C503.87 601.953 524.638 575.307 524.638 536.122V380.165H581.064V540.04C581.064 608.615 535.218 652.894 468.603 652.894ZM618.496 647.016V380.165H674.139V647.016H618.496ZM771.134 647.016V430.714H693.939V380.165H904.364V430.714H826.777V647.016H771.134Z"/>
</mask>
<path d="M-1516.99 647.016H-1517.35V647.37H-1516.99V647.016ZM-1516.99 430.714H-1516.64V430.36H-1516.99V430.714ZM-1594.19 430.714H-1594.54V431.067H-1594.19V430.714ZM-1594.19 380.165V379.811H-1594.54V380.165H-1594.19ZM-1383.76 380.165H-1383.41V379.811H-1383.76V380.165ZM-1383.76 430.714V431.067H-1383.41V430.714H-1383.76ZM-1461.35 430.714V430.36H-1461.7V430.714H-1461.35ZM-1461.35 647.016V647.37H-1460.99V647.016H-1461.35ZM-1516.64 647.016V430.714H-1517.35V647.016H-1516.64ZM-1516.99 430.36H-1594.19V431.067H-1516.99V430.36ZM-1593.83 430.714V380.165H-1594.54V430.714H-1593.83ZM-1594.19 380.519H-1383.76V379.811H-1594.19V380.519ZM-1384.12 380.165V430.714H-1383.41V380.165H-1384.12ZM-1383.76 430.36H-1461.35V431.067H-1383.76V430.36ZM-1461.7 430.714V647.016H-1460.99V430.714H-1461.7ZM-1461.35 646.662H-1516.99V647.37H-1461.35V646.662ZM-1363.95 647.016H-1364.31V647.37H-1363.95V647.016ZM-1363.95 380.165V379.811H-1364.31V380.165H-1363.95ZM-1181.74 380.165H-1181.39V379.811H-1181.74V380.165ZM-1181.74 429.93V430.284H-1181.39V429.93H-1181.74ZM-1308.31 429.93V429.576H-1308.67V429.93H-1308.31ZM-1308.31 486.749H-1308.67V487.102H-1308.31V486.749ZM-1187.62 486.749H-1187.27V486.395H-1187.62V486.749ZM-1187.62 534.555V534.908H-1187.27V534.555H-1187.62ZM-1308.31 534.555V534.201H-1308.67V534.555H-1308.31ZM-1308.31 597.251H-1308.67V597.605H-1308.31V597.251ZM-1178.61 597.251H-1178.25V596.897H-1178.61V597.251ZM-1178.61 647.016V647.37H-1178.25V647.016H-1178.61ZM-1363.6 647.016V380.165H-1364.31V647.016H-1363.6ZM-1363.95 380.519H-1181.74V379.811H-1363.95V380.519ZM-1182.1 380.165V429.93H-1181.39V380.165H-1182.1ZM-1181.74 429.576H-1308.31V430.284H-1181.74V429.576ZM-1308.67 429.93V486.749H-1307.96V429.93H-1308.67ZM-1308.31 487.102H-1187.62V486.395H-1308.31V487.102ZM-1187.98 486.749V534.555H-1187.27V486.749H-1187.98ZM-1187.62 534.201H-1308.31V534.908H-1187.62V534.201ZM-1308.67 534.555V597.251H-1307.96V534.555H-1308.67ZM-1308.31 597.605H-1178.61V596.897H-1308.31V597.605ZM-1178.96 597.251V647.016H-1178.25V597.251H-1178.96ZM-1178.61 646.662H-1363.95V647.37H-1178.61V646.662ZM-897.201 452.266L-897.072 452.595L-896.741 452.465L-896.872 452.135L-897.201 452.266ZM-951.276 473.426L-951.609 473.545L-951.486 473.888L-951.147 473.755L-951.276 473.426ZM-1020.24 425.228L-1020.25 425.582H-1020.24V425.228ZM-1020.24 601.953V601.599H-1020.25L-1020.24 601.953ZM-950.884 552.972L-950.755 552.642L-951.096 552.509L-951.218 552.853L-950.884 552.972ZM-896.809 574.132L-896.48 574.262L-896.349 573.932L-896.68 573.802L-896.809 574.132ZM-1020.24 652.54C-1060.32 652.54 -1094.32 637.978 -1118.29 613.315C-1142.27 588.652 -1156.25 553.868 -1156.25 513.395H-1156.96C-1156.96 554.034 -1142.92 589 -1118.8 613.808C-1094.68 638.617 -1060.5 653.248 -1020.24 653.248V652.54ZM-1156.25 513.395C-1156.25 432.858 -1100.37 374.249 -1020.24 374.249V373.541C-1100.78 373.541 -1156.96 432.488 -1156.96 513.395H-1156.25ZM-1020.24 374.249C-963.937 374.249 -917.844 401.219 -897.529 452.396L-896.872 452.135C-917.31 400.647 -963.694 373.541 -1020.24 373.541V374.249ZM-897.33 451.936L-951.405 473.096L-951.147 473.755L-897.072 452.595L-897.33 451.936ZM-950.943 473.306C-961.966 442.599 -987.572 424.874 -1020.24 424.874V425.582C-987.865 425.582 -962.53 443.124 -951.609 473.545L-950.943 473.306ZM-1020.24 424.874C-1044.25 424.677 -1063.65 434.422 -1077.04 450.422C-1090.42 466.416 -1097.79 488.64 -1097.79 513.395H-1097.08C-1097.08 488.775 -1089.76 466.721 -1076.5 450.876C-1063.24 435.038 -1044.04 425.386 -1020.25 425.582L-1020.24 424.874ZM-1097.79 513.395C-1097.79 538.344 -1090.42 560.667 -1077.04 576.709C-1063.65 592.758 -1044.25 602.504 -1020.24 602.307L-1020.25 601.599C-1044.04 601.794 -1063.24 592.143 -1076.5 576.256C-1089.76 560.363 -1097.08 538.21 -1097.08 513.395H-1097.79ZM-1020.24 602.307C-987.57 602.307 -961.573 584.188 -950.551 553.09L-951.218 552.853C-962.139 583.668 -987.867 601.599 -1020.24 601.599V602.307ZM-951.013 553.301L-896.938 574.461L-896.68 573.802L-950.755 552.642L-951.013 553.301ZM-897.138 574.001C-917.453 625.18 -963.547 652.54 -1020.24 652.54V653.248C-963.3 653.248 -916.917 625.749 -896.48 574.262L-897.138 574.001ZM-871.155 647.016H-871.509V647.37H-871.155V647.016ZM-871.155 380.165V379.811H-871.509V380.165H-871.155ZM-815.512 380.165H-815.158V379.811H-815.512V380.165ZM-815.512 485.181H-815.866V485.535H-815.512V485.181ZM-698.74 485.181V485.535H-698.386V485.181H-698.74ZM-698.74 380.165V379.811H-699.094V380.165H-698.74ZM-643.097 380.165H-642.743V379.811H-643.097V380.165ZM-643.097 647.016V647.37H-642.743V647.016H-643.097ZM-698.74 647.016H-699.094V647.37H-698.74V647.016ZM-698.74 536.514H-698.386V536.16H-698.74V536.514ZM-815.512 536.514V536.16H-815.866V536.514H-815.512ZM-815.512 647.016V647.37H-815.158V647.016H-815.512ZM-870.801 647.016V380.165H-871.509V647.016H-870.801ZM-871.155 380.519H-815.512V379.811H-871.155V380.519ZM-815.866 380.165V485.181H-815.158V380.165H-815.866ZM-815.512 485.535H-698.74V484.827H-815.512V485.535ZM-698.386 485.181V380.165H-699.094V485.181H-698.386ZM-698.74 380.519H-643.097V379.811H-698.74V380.519ZM-643.451 380.165V647.016H-642.743V380.165H-643.451ZM-643.097 646.662H-698.74V647.37H-643.097V646.662ZM-698.386 647.016V536.514H-699.094V647.016H-698.386ZM-698.74 536.16H-815.512V536.868H-698.74V536.16ZM-815.866 536.514V647.016H-815.158V536.514H-815.866ZM-815.512 646.662H-871.155V647.37H-815.512V646.662ZM-281.411 452.266L-281.282 452.595L-280.951 452.465L-281.083 452.135L-281.411 452.266ZM-335.487 473.426L-335.82 473.545L-335.697 473.888L-335.358 473.755L-335.487 473.426ZM-404.453 425.228L-404.456 425.582H-404.453V425.228ZM-404.453 601.953V601.599H-404.456L-404.453 601.953ZM-335.095 552.972L-334.966 552.642L-335.306 552.509L-335.428 552.853L-335.095 552.972ZM-281.019 574.132L-280.691 574.262L-280.559 573.932L-280.891 573.802L-281.019 574.132ZM-404.453 652.54C-444.529 652.54 -478.526 637.978 -502.505 613.315C-526.485 588.652 -540.464 553.868 -540.464 513.395H-541.171C-541.171 554.034 -527.133 589 -503.012 613.808C-478.891 638.617 -444.707 653.248 -404.453 653.248V652.54ZM-540.464 513.395C-540.464 432.858 -484.577 374.249 -404.453 374.249V373.541C-484.988 373.541 -541.171 432.488 -541.171 513.395H-540.464ZM-404.453 374.249C-348.148 374.249 -302.055 401.219 -281.74 452.396L-281.083 452.135C-301.52 400.647 -347.904 373.541 -404.453 373.541V374.249ZM-281.54 451.936L-335.616 473.096L-335.358 473.755L-281.282 452.595L-281.54 451.936ZM-335.154 473.306C-346.177 442.599 -371.782 424.874 -404.453 424.874V425.582C-372.076 425.582 -346.74 443.124 -335.82 473.545L-335.154 473.306ZM-404.45 424.874C-428.459 424.677 -447.858 434.422 -461.249 450.422C-474.634 466.416 -482.001 488.64 -482.001 513.395H-481.294C-481.294 488.775 -473.967 466.721 -460.706 450.876C-447.451 435.038 -428.252 425.386 -404.456 425.582L-404.45 424.874ZM-482.001 513.395C-482.001 538.344 -474.635 560.667 -461.249 576.709C-447.859 592.758 -428.459 602.504 -404.45 602.307L-404.456 601.599C-428.252 601.794 -447.451 592.143 -460.706 576.256C-473.966 560.363 -481.294 538.21 -481.294 513.395H-482.001ZM-404.453 602.307C-371.78 602.307 -345.784 584.188 -334.762 553.09L-335.428 552.853C-346.35 583.668 -372.078 601.599 -404.453 601.599V602.307ZM-335.224 553.301L-281.148 574.461L-280.891 573.802L-334.966 552.642L-335.224 553.301ZM-281.348 574.001C-301.663 625.18 -347.757 652.54 -404.453 652.54V653.248C-347.511 653.248 -301.128 625.749 -280.691 574.262L-281.348 574.001ZM-255.365 647.016H-255.719V647.37H-255.365V647.016ZM-255.365 380.165V379.811H-255.719V380.165H-255.365ZM-199.722 380.165H-199.369V379.811H-199.722V380.165ZM-199.722 647.016V647.37H-199.369V647.016H-199.722ZM-255.012 647.016V380.165H-255.719V647.016H-255.012ZM-255.365 380.519H-199.722V379.811H-255.365V380.519ZM-200.076 380.165V647.016H-199.369V380.165H-200.076ZM-199.722 646.662H-255.365V647.37H-199.722V646.662ZM-159.545 647.016H-159.899V647.37H-159.545V647.016ZM-159.545 380.165V379.811H-159.899V380.165H-159.545ZM-31.4095 537.298L-31.4639 536.948L-32.0863 537.045L-31.6798 537.526L-31.4095 537.298ZM60.2838 645.841H60.6376V645.711L60.5541 645.612L60.2838 645.841ZM60.2838 647.016V647.37H60.6376V647.016H60.2838ZM-9.85779 647.016L-10.1311 647.241L-10.025 647.37H-9.85779V647.016ZM-103.51 532.987L-103.237 532.763L-103.343 532.633H-103.51V532.987ZM-103.902 532.987V532.633H-104.256V532.987H-103.902ZM-103.902 647.016V647.37H-103.548V647.016H-103.902ZM-103.902 427.579V427.225H-104.256V427.579H-103.902ZM-103.902 498.504H-104.256V498.858H-103.902V498.504ZM-159.192 647.016V380.165H-159.899V647.016H-159.192ZM-159.545 380.519H-51.394V379.811H-159.545V380.519ZM-51.394 380.519C-24.6211 380.519 -2.67114 388.432 12.5817 402.418C27.8313 416.401 36.4189 436.483 36.4189 460.886H37.1265C37.1265 436.309 28.4725 416.029 13.0598 401.897C-2.34985 387.767 -24.4833 379.811 -51.394 379.811V380.519ZM36.4189 460.886C36.4189 481.965 29.4922 499.413 17.5566 512.371C5.61877 525.332 -11.3494 533.823 -31.4639 536.948L-31.3553 537.647C-11.109 534.502 6.01392 525.948 18.077 512.85C30.1425 499.751 37.1265 482.128 37.1265 460.886H36.4189ZM-31.6798 537.526L60.0135 646.069L60.5541 645.612L-31.1394 537.069L-31.6798 537.526ZM59.9301 645.841V647.016H60.6376V645.841H59.9301ZM60.2838 646.662H-9.85779V647.37H60.2838V646.662ZM-9.58435 646.792L-103.237 532.763L-103.784 533.212L-10.1311 647.241L-9.58435 646.792ZM-103.51 532.633H-103.902V533.341H-103.51V532.633ZM-104.256 532.987V647.016H-103.548V532.987H-104.256ZM-103.902 646.662H-159.545V647.37H-103.902V646.662ZM-57.2719 427.225H-103.902V427.933H-57.2719V427.225ZM-104.256 427.579V498.504H-103.548V427.579H-104.256ZM-103.902 498.858H-57.2719V498.15H-103.902V498.858ZM-57.2719 498.858C-45.6404 498.858 -36.0446 495.308 -29.3539 488.965C-22.6613 482.619 -18.9084 473.509 -18.9084 462.454H-19.616C-19.616 473.343 -23.3082 482.257 -29.8407 488.451C-36.375 494.647 -45.7841 498.15 -57.2719 498.15V498.858ZM-18.9084 462.454C-18.9084 451.59 -22.7631 442.771 -29.507 436.672C-36.2468 430.576 -45.8403 427.225 -57.2719 427.225V427.933C-45.976 427.933 -36.5646 431.243 -29.9816 437.197C-23.4025 443.147 -19.616 451.766 -19.616 462.454H-18.9084ZM333.23 452.266L333.359 452.595L333.69 452.465L333.559 452.135L333.23 452.266ZM279.155 473.426L278.822 473.545L278.945 473.888L279.284 473.755L279.155 473.426ZM210.189 425.228L210.186 425.582H210.189V425.228ZM210.189 601.953V601.599H210.186L210.189 601.953ZM279.547 552.972L279.675 552.642L279.335 552.509L279.213 552.853L279.547 552.972ZM333.622 574.132L333.951 574.262L334.082 573.932L333.751 573.802L333.622 574.132ZM210.189 652.54C170.113 652.54 136.115 637.978 112.136 613.315C88.1569 588.652 74.1779 553.868 74.1779 513.395H73.4703C73.4703 554.034 87.5089 589 111.629 613.808C135.75 638.617 169.935 653.248 210.189 653.248V652.54ZM74.1779 513.395C74.1779 432.858 130.064 374.249 210.189 374.249V373.541C129.654 373.541 73.4703 432.488 73.4703 513.395H74.1779ZM210.189 374.249C266.494 374.249 312.587 401.219 332.901 452.396L333.559 452.135C313.121 400.647 266.737 373.541 210.189 373.541V374.249ZM333.101 451.936L279.026 473.096L279.284 473.755L333.359 452.595L333.101 451.936ZM279.488 473.306C268.464 442.599 242.859 424.874 210.189 424.874V425.582C242.566 425.582 267.901 443.124 278.822 473.545L279.488 473.306ZM210.192 424.874C186.182 424.677 166.783 434.422 153.393 450.422C140.007 466.416 132.64 488.64 132.64 513.395H133.348C133.348 488.775 140.675 466.721 153.935 450.876C167.191 435.038 186.389 425.386 210.186 425.582L210.192 424.874ZM132.64 513.395C132.64 538.344 140.007 560.667 153.392 576.709C166.783 592.758 186.182 602.504 210.192 602.307L210.186 601.599C186.389 601.794 167.191 592.143 153.936 576.256C140.675 560.363 133.348 538.21 133.348 513.395H132.64ZM210.189 602.307C242.861 602.307 268.858 584.188 279.88 553.09L279.213 552.853C268.292 583.668 242.564 601.599 210.189 601.599V602.307ZM279.418 553.301L333.493 574.461L333.751 573.802L279.675 552.642L279.418 553.301ZM333.293 574.001C312.978 625.18 266.884 652.54 210.189 652.54V653.248C267.13 653.248 313.513 625.749 333.951 574.262L333.293 574.001ZM356.141 380.165V379.811H355.788V380.165H356.141ZM412.568 380.165H412.922V379.811H412.568V380.165ZM524.638 380.165V379.811H524.284V380.165H524.638ZM581.064 380.165H581.418V379.811H581.064V380.165ZM468.603 652.54C435.179 652.54 407.158 641.498 387.494 621.932C367.831 602.366 356.495 574.247 356.495 540.04H355.788C355.788 574.408 367.179 602.716 386.995 622.433C406.81 642.15 435.02 653.248 468.603 653.248V652.54ZM356.495 540.04V380.165H355.788V540.04H356.495ZM356.141 380.519H412.568V379.811H356.141V380.519ZM412.214 380.165V536.122H412.922V380.165H412.214ZM412.214 536.122C412.214 555.577 417.323 572.122 426.94 583.81C436.564 595.506 450.676 602.307 468.603 602.307V601.599C450.871 601.599 436.966 594.881 427.487 583.36C418.001 571.831 412.922 555.46 412.922 536.122H412.214ZM468.603 602.307C486.333 602.307 500.445 595.605 510.117 583.958C519.784 572.319 524.991 555.774 524.991 536.122H524.284C524.284 555.656 519.108 572.026 509.573 583.506C500.045 594.978 486.139 601.599 468.603 601.599V602.307ZM524.991 536.122V380.165H524.284V536.122H524.991ZM524.638 380.519H581.064V379.811H524.638V380.519ZM580.711 380.165V540.04H581.418V380.165H580.711ZM580.711 540.04C580.711 574.247 569.278 602.365 549.565 621.931C529.852 641.498 501.831 652.54 468.603 652.54V653.248C501.99 653.248 530.2 642.15 550.063 622.434C569.928 602.717 581.418 574.409 581.418 540.04H580.711ZM618.496 647.016H618.142V647.37H618.496V647.016ZM618.496 380.165V379.811H618.142V380.165H618.496ZM674.138 380.165H674.492V379.811H674.138V380.165ZM674.138 647.016V647.37H674.492V647.016H674.138ZM618.849 647.016V380.165H618.142V647.016H618.849ZM618.496 380.519H674.138V379.811H618.496V380.519ZM673.785 380.165V647.016H674.492V380.165H673.785ZM674.138 646.662H618.496V647.37H674.138V646.662ZM771.134 647.016H770.781V647.37H771.134V647.016ZM771.134 430.714H771.488V430.36H771.134V430.714ZM693.939 430.714H693.585V431.067H693.939V430.714ZM693.939 380.165V379.811H693.585V380.165H693.939ZM904.364 380.165H904.718V379.811H904.364V380.165ZM904.364 430.714V431.067H904.718V430.714H904.364ZM826.777 430.714V430.36H826.423V430.714H826.777ZM826.777 647.016V647.37H827.131V647.016H826.777ZM771.488 647.016V430.714H770.781V647.016H771.488ZM771.134 430.36H693.939V431.067H771.134V430.36ZM694.293 430.714V380.165H693.585V430.714H694.293ZM693.939 380.519H904.364V379.811H693.939V380.519ZM904.01 380.165V430.714H904.718V380.165H904.01ZM904.364 430.36H826.777V431.067H904.364V430.36ZM826.423 430.714V647.016H827.131V430.714H826.423ZM826.777 646.662H771.134V647.37H826.777V646.662Z" fill="url(#paint2_linear_56_133)" fill-opacity="0.6" mask="url(#path-5-outside-3_56_133)"/>
<mask id="path-7-outside-4_56_133" maskUnits="userSpaceOnUse" x="805.705" y="373.016" width="2500" height="281" fill="black">
<rect fill="white" x="805.705" y="373.016" width="2500" height="281"/>
<path d="M883.714 647.016V430.714H806.519V380.165H1016.94V430.714H939.357V647.016H883.714ZM1036.75 647.016V380.165H1218.96V429.93H1092.39V486.749H1213.08V534.555H1092.39V597.251H1222.1V647.016H1036.75ZM1380.46 652.894C1300.13 652.894 1244.1 594.508 1244.1 513.395C1244.1 432.673 1300.13 373.895 1380.46 373.895C1436.89 373.895 1483.13 400.933 1503.5 452.266L1449.43 473.426C1438.46 442.861 1412.99 425.228 1380.46 425.228C1332.66 424.836 1303.27 464.021 1303.27 513.395C1303.27 563.16 1332.66 602.345 1380.46 601.953C1412.99 601.953 1438.85 583.928 1449.82 552.972L1503.9 574.132C1483.52 625.464 1437.28 652.894 1380.46 652.894ZM1529.55 647.016V380.165H1585.19V485.181H1701.96V380.165H1757.61V647.016H1701.96V536.514H1585.19V647.016H1529.55ZM1996.25 652.894C1915.92 652.894 1859.89 594.508 1859.89 513.395C1859.89 432.673 1915.92 373.895 1996.25 373.895C2052.68 373.895 2098.92 400.933 2119.29 452.266L2065.22 473.426C2054.25 442.861 2028.78 425.228 1996.25 425.228C1948.45 424.836 1919.06 464.021 1919.06 513.395C1919.06 563.16 1948.45 602.345 1996.25 601.953C2028.78 601.953 2054.64 583.928 2065.61 552.972L2119.69 574.132C2099.31 625.464 2053.07 652.894 1996.25 652.894ZM2145.34 647.016V380.165H2200.98V647.016H2145.34ZM2241.16 647.016V380.165H2349.31C2402.99 380.165 2437.48 411.905 2437.48 460.886C2437.48 503.206 2409.66 531.028 2369.3 537.298L2460.99 645.841V647.016H2390.85L2297.19 532.987H2296.8V647.016H2241.16ZM2343.43 427.579H2296.8V498.504H2343.43C2366.55 498.504 2381.44 484.397 2381.44 462.454C2381.44 440.902 2366.16 427.579 2343.43 427.579ZM2610.89 652.894C2530.56 652.894 2474.53 594.508 2474.53 513.395C2474.53 432.673 2530.56 373.895 2610.89 373.895C2667.32 373.895 2713.56 400.933 2733.94 452.266L2679.86 473.426C2668.89 442.861 2643.42 425.228 2610.89 425.228C2563.09 424.836 2533.7 464.021 2533.7 513.395C2533.7 563.16 2563.09 602.345 2610.89 601.953C2643.42 601.953 2669.28 583.928 2680.25 552.972L2734.33 574.132C2713.95 625.464 2667.71 652.894 2610.89 652.894ZM2869.31 652.894C2802.3 652.894 2756.85 608.615 2756.85 540.04V380.165H2813.27V536.122C2813.27 574.915 2833.65 601.953 2869.31 601.953C2904.57 601.953 2925.34 575.307 2925.34 536.122V380.165H2981.77V540.04C2981.77 608.615 2935.92 652.894 2869.31 652.894ZM3019.2 647.016V380.165H3074.84V647.016H3019.2ZM3171.84 647.016V430.714H3094.64V380.165H3305.07V430.714H3227.48V647.016H3171.84Z"/>
</mask>
<path d="M883.714 647.016H883.36V647.37H883.714V647.016ZM883.714 430.714H884.067V430.36H883.714V430.714ZM806.519 430.714H806.165V431.067H806.519V430.714ZM806.519 380.165V379.811H806.165V380.165H806.519ZM1016.94 380.165H1017.3V379.811H1016.94V380.165ZM1016.94 430.714V431.067H1017.3V430.714H1016.94ZM939.357 430.714V430.36H939.003V430.714H939.357ZM939.357 647.016V647.37H939.71V647.016H939.357ZM884.067 647.016V430.714H883.36V647.016H884.067ZM883.714 430.36H806.519V431.067H883.714V430.36ZM806.872 430.714V380.165H806.165V430.714H806.872ZM806.519 380.519H1016.94V379.811H806.519V380.519ZM1016.59 380.165V430.714H1017.3V380.165H1016.59ZM1016.94 430.36H939.357V431.067H1016.94V430.36ZM939.003 430.714V647.016H939.71V430.714H939.003ZM939.357 646.662H883.714V647.37H939.357V646.662ZM1036.75 647.016H1036.4V647.37H1036.75V647.016ZM1036.75 380.165V379.811H1036.4V380.165H1036.75ZM1218.96 380.165H1219.32V379.811H1218.96V380.165ZM1218.96 429.93V430.284H1219.32V429.93H1218.96ZM1092.39 429.93V429.576H1092.04V429.93H1092.39ZM1092.39 486.749H1092.04V487.102H1092.39V486.749ZM1213.08 486.749H1213.44V486.395H1213.08V486.749ZM1213.08 534.555V534.908H1213.44V534.555H1213.08ZM1092.39 534.555V534.201H1092.04V534.555H1092.39ZM1092.39 597.251H1092.04V597.605H1092.39V597.251ZM1222.1 597.251H1222.45V596.897H1222.1V597.251ZM1222.1 647.016V647.37H1222.45V647.016H1222.1ZM1037.1 647.016V380.165H1036.4V647.016H1037.1ZM1036.75 380.519H1218.96V379.811H1036.75V380.519ZM1218.61 380.165V429.93H1219.32V380.165H1218.61ZM1218.96 429.576H1092.39V430.284H1218.96V429.576ZM1092.04 429.93V486.749H1092.75V429.93H1092.04ZM1092.39 487.102H1213.08V486.395H1092.39V487.102ZM1212.73 486.749V534.555H1213.44V486.749H1212.73ZM1213.08 534.201H1092.39V534.908H1213.08V534.201ZM1092.04 534.555V597.251H1092.75V534.555H1092.04ZM1092.39 597.605H1222.1V596.897H1092.39V597.605ZM1221.74 597.251V647.016H1222.45V597.251H1221.74ZM1222.1 646.662H1036.75V647.37H1222.1V646.662ZM1503.5 452.266L1503.63 452.595L1503.96 452.465L1503.83 452.135L1503.5 452.266ZM1449.43 473.426L1449.1 473.545L1449.22 473.888L1449.56 473.755L1449.43 473.426ZM1380.46 425.228L1380.46 425.582H1380.46V425.228ZM1380.46 601.953V601.599H1380.46L1380.46 601.953ZM1449.82 552.972L1449.95 552.642L1449.61 552.509L1449.49 552.853L1449.82 552.972ZM1503.9 574.132L1504.22 574.262L1504.36 573.932L1504.02 573.802L1503.9 574.132ZM1380.46 652.54C1340.39 652.54 1306.39 637.978 1282.41 613.315C1258.43 588.652 1244.45 553.868 1244.45 513.395H1243.74C1243.74 554.034 1257.78 589 1281.9 613.808C1306.02 638.617 1340.21 653.248 1380.46 653.248V652.54ZM1244.45 513.395C1244.45 432.858 1300.34 374.249 1380.46 374.249V373.541C1299.93 373.541 1243.74 432.488 1243.74 513.395H1244.45ZM1380.46 374.249C1436.77 374.249 1482.86 401.219 1503.18 452.396L1503.83 452.135C1483.4 400.647 1437.01 373.541 1380.46 373.541V374.249ZM1503.38 451.936L1449.3 473.096L1449.56 473.755L1503.63 452.595L1503.38 451.936ZM1449.76 473.306C1438.74 442.599 1413.13 424.874 1380.46 424.874V425.582C1412.84 425.582 1438.17 443.124 1449.1 473.545L1449.76 473.306ZM1380.47 424.874C1356.46 424.677 1337.06 434.422 1323.67 450.422C1310.28 466.416 1302.91 488.64 1302.91 513.395H1303.62C1303.62 488.775 1310.95 466.721 1324.21 450.876C1337.46 435.038 1356.66 425.386 1380.46 425.582L1380.47 424.874ZM1302.91 513.395C1302.91 538.344 1310.28 560.667 1323.67 576.709C1337.06 592.758 1356.46 602.504 1380.47 602.307L1380.46 601.599C1356.66 601.794 1337.46 592.143 1324.21 576.256C1310.95 560.363 1303.62 538.21 1303.62 513.395H1302.91ZM1380.46 602.307C1413.14 602.307 1439.13 584.188 1450.15 553.09L1449.49 552.853C1438.57 583.668 1412.84 601.599 1380.46 601.599V602.307ZM1449.69 553.301L1503.77 574.461L1504.02 573.802L1449.95 552.642L1449.69 553.301ZM1503.57 574.001C1483.25 625.18 1437.16 652.54 1380.46 652.54V653.248C1437.4 653.248 1483.79 625.749 1504.22 574.262L1503.57 574.001ZM1529.55 647.016H1529.2V647.37H1529.55V647.016ZM1529.55 380.165V379.811H1529.2V380.165H1529.55ZM1585.19 380.165H1585.55V379.811H1585.19V380.165ZM1585.19 485.181H1584.84V485.535H1585.19V485.181ZM1701.96 485.181V485.535H1702.32V485.181H1701.96ZM1701.96 380.165V379.811H1701.61V380.165H1701.96ZM1757.61 380.165H1757.96V379.811H1757.61V380.165ZM1757.61 647.016V647.37H1757.96V647.016H1757.61ZM1701.96 647.016H1701.61V647.37H1701.96V647.016ZM1701.96 536.514H1702.32V536.16H1701.96V536.514ZM1585.19 536.514V536.16H1584.84V536.514H1585.19ZM1585.19 647.016V647.37H1585.55V647.016H1585.19ZM1529.9 647.016V380.165H1529.2V647.016H1529.9ZM1529.55 380.519H1585.19V379.811H1529.55V380.519ZM1584.84 380.165V485.181H1585.55V380.165H1584.84ZM1585.19 485.535H1701.96V484.827H1585.19V485.535ZM1702.32 485.181V380.165H1701.61V485.181H1702.32ZM1701.96 380.519H1757.61V379.811H1701.96V380.519ZM1757.25 380.165V647.016H1757.96V380.165H1757.25ZM1757.61 646.662H1701.96V647.37H1757.61V646.662ZM1702.32 647.016V536.514H1701.61V647.016H1702.32ZM1701.96 536.16H1585.19V536.868H1701.96V536.16ZM1584.84 536.514V647.016H1585.55V536.514H1584.84ZM1585.19 646.662H1529.55V647.37H1585.19V646.662ZM2119.29 452.266L2119.42 452.595L2119.75 452.465L2119.62 452.135L2119.29 452.266ZM2065.22 473.426L2064.89 473.545L2065.01 473.888L2065.35 473.755L2065.22 473.426ZM1996.25 425.228L1996.25 425.582H1996.25V425.228ZM1996.25 601.953V601.599H1996.25L1996.25 601.953ZM2065.61 552.972L2065.74 552.642L2065.4 552.509L2065.28 552.853L2065.61 552.972ZM2119.69 574.132L2120.01 574.262L2120.15 573.932L2119.81 573.802L2119.69 574.132ZM1996.25 652.54C1956.18 652.54 1922.18 637.978 1898.2 613.315C1874.22 588.652 1860.24 553.868 1860.24 513.395H1859.53C1859.53 554.034 1873.57 589 1897.69 613.808C1921.81 638.617 1956 653.248 1996.25 653.248V652.54ZM1860.24 513.395C1860.24 432.858 1916.13 374.249 1996.25 374.249V373.541C1915.72 373.541 1859.53 432.488 1859.53 513.395H1860.24ZM1996.25 374.249C2052.56 374.249 2098.65 401.219 2118.96 452.396L2119.62 452.135C2099.18 400.647 2052.8 373.541 1996.25 373.541V374.249ZM2119.16 451.936L2065.09 473.096L2065.35 473.755L2119.42 452.595L2119.16 451.936ZM2065.55 473.306C2054.53 442.599 2028.92 424.874 1996.25 424.874V425.582C2028.63 425.582 2053.96 443.124 2064.89 473.545L2065.55 473.306ZM1996.25 424.874C1972.25 424.677 1952.85 434.422 1939.46 450.422C1926.07 466.416 1918.7 488.64 1918.7 513.395H1919.41C1919.41 488.775 1926.74 466.721 1940 450.876C1953.25 435.038 1972.45 425.386 1996.25 425.582L1996.25 424.874ZM1918.7 513.395C1918.7 538.344 1926.07 560.667 1939.46 576.709C1952.85 592.758 1972.25 602.504 1996.25 602.307L1996.25 601.599C1972.45 601.794 1953.25 592.143 1940 576.256C1926.74 560.363 1919.41 538.21 1919.41 513.395H1918.7ZM1996.25 602.307C2028.92 602.307 2054.92 584.188 2065.94 553.09L2065.28 552.853C2054.35 583.668 2028.63 601.599 1996.25 601.599V602.307ZM2065.48 553.301L2119.56 574.461L2119.81 573.802L2065.74 552.642L2065.48 553.301ZM2119.36 574.001C2099.04 625.18 2052.95 652.54 1996.25 652.54V653.248C2053.19 653.248 2099.58 625.749 2120.01 574.262L2119.36 574.001ZM2145.34 647.016H2144.99V647.37H2145.34V647.016ZM2145.34 380.165V379.811H2144.99V380.165H2145.34ZM2200.98 380.165H2201.34V379.811H2200.98V380.165ZM2200.98 647.016V647.37H2201.34V647.016H2200.98ZM2145.69 647.016V380.165H2144.99V647.016H2145.69ZM2145.34 380.519H2200.98V379.811H2145.34V380.519ZM2200.63 380.165V647.016H2201.34V380.165H2200.63ZM2200.98 646.662H2145.34V647.37H2200.98V646.662ZM2241.16 647.016H2240.81V647.37H2241.16V647.016ZM2241.16 380.165V379.811H2240.81V380.165H2241.16ZM2369.3 537.298L2369.24 536.948L2368.62 537.045L2369.03 537.526L2369.3 537.298ZM2460.99 645.841H2461.34V645.711L2461.26 645.612L2460.99 645.841ZM2460.99 647.016V647.37H2461.34V647.016H2460.99ZM2390.85 647.016L2390.57 647.241L2390.68 647.37H2390.85V647.016ZM2297.19 532.987L2297.47 532.763L2297.36 532.633H2297.19V532.987ZM2296.8 532.987V532.633H2296.45V532.987H2296.8ZM2296.8 647.016V647.37H2297.16V647.016H2296.8ZM2296.8 427.579V427.225H2296.45V427.579H2296.8ZM2296.8 498.504H2296.45V498.858H2296.8V498.504ZM2241.51 647.016V380.165H2240.81V647.016H2241.51ZM2241.16 380.519H2349.31V379.811H2241.16V380.519ZM2349.31 380.519C2376.08 380.519 2398.03 388.432 2413.29 402.418C2428.54 416.401 2437.12 436.483 2437.12 460.886H2437.83C2437.83 436.309 2429.18 416.029 2413.76 401.897C2398.35 387.767 2376.22 379.811 2349.31 379.811V380.519ZM2437.12 460.886C2437.12 481.965 2430.2 499.413 2418.26 512.371C2406.32 525.332 2389.36 533.823 2369.24 536.948L2369.35 537.647C2389.6 534.502 2406.72 525.948 2418.78 512.85C2430.85 499.751 2437.83 482.128 2437.83 460.886H2437.12ZM2369.03 537.526L2460.72 646.069L2461.26 645.612L2369.57 537.069L2369.03 537.526ZM2460.63 645.841V647.016H2461.34V645.841H2460.63ZM2460.99 646.662H2390.85V647.37H2460.99V646.662ZM2391.12 646.792L2297.47 532.763L2296.92 533.212L2390.57 647.241L2391.12 646.792ZM2297.19 532.633H2296.8V533.341H2297.19V532.633ZM2296.45 532.987V647.016H2297.16V532.987H2296.45ZM2296.8 646.662H2241.16V647.37H2296.8V646.662ZM2343.43 427.225H2296.8V427.933H2343.43V427.225ZM2296.45 427.579V498.504H2297.16V427.579H2296.45ZM2296.8 498.858H2343.43V498.15H2296.8V498.858ZM2343.43 498.858C2355.06 498.858 2364.66 495.308 2371.35 488.965C2378.04 482.619 2381.8 473.509 2381.8 462.454H2381.09C2381.09 473.343 2377.4 482.257 2370.86 488.451C2364.33 494.647 2354.92 498.15 2343.43 498.15V498.858ZM2381.8 462.454C2381.8 451.59 2377.94 442.771 2371.2 436.672C2364.46 430.576 2354.86 427.225 2343.43 427.225V427.933C2354.73 427.933 2364.14 431.243 2370.72 437.197C2377.3 443.147 2381.09 451.766 2381.09 462.454H2381.8ZM2733.94 452.266L2734.06 452.595L2734.4 452.465L2734.26 452.135L2733.94 452.266ZM2679.86 473.426L2679.53 473.545L2679.65 473.888L2679.99 473.755L2679.86 473.426ZM2610.89 425.228L2610.89 425.582H2610.89V425.228ZM2610.89 601.953V601.599H2610.89L2610.89 601.953ZM2680.25 552.972L2680.38 552.642L2680.04 552.509L2679.92 552.853L2680.25 552.972ZM2734.33 574.132L2734.66 574.262L2734.79 573.932L2734.46 573.802L2734.33 574.132ZM2610.89 652.54C2570.82 652.54 2536.82 637.978 2512.84 613.315C2488.86 588.652 2474.88 553.868 2474.88 513.395H2474.18C2474.18 554.034 2488.21 589 2512.33 613.808C2536.46 638.617 2570.64 653.248 2610.89 653.248V652.54ZM2474.88 513.395C2474.88 432.858 2530.77 374.249 2610.89 374.249V373.541C2530.36 373.541 2474.18 432.488 2474.18 513.395H2474.88ZM2610.89 374.249C2667.2 374.249 2713.29 401.219 2733.61 452.396L2734.26 452.135C2713.83 400.647 2667.44 373.541 2610.89 373.541V374.249ZM2733.81 451.936L2679.73 473.096L2679.99 473.755L2734.06 452.595L2733.81 451.936ZM2680.19 473.306C2669.17 442.599 2643.56 424.874 2610.89 424.874V425.582C2643.27 425.582 2668.61 443.124 2679.53 473.545L2680.19 473.306ZM2610.9 424.874C2586.89 424.677 2567.49 434.422 2554.1 450.422C2540.71 466.416 2533.34 488.64 2533.34 513.395H2534.05C2534.05 488.775 2541.38 466.721 2554.64 450.876C2567.9 435.038 2587.09 425.386 2610.89 425.582L2610.9 424.874ZM2533.34 513.395C2533.34 538.344 2540.71 560.667 2554.1 576.709C2567.49 592.758 2586.89 602.504 2610.9 602.307L2610.89 601.599C2587.09 601.794 2567.9 592.143 2554.64 576.256C2541.38 560.363 2534.05 538.21 2534.05 513.395H2533.34ZM2610.89 602.307C2643.57 602.307 2669.56 584.188 2680.58 553.09L2679.92 552.853C2669 583.668 2643.27 601.599 2610.89 601.599V602.307ZM2680.12 553.301L2734.2 574.461L2734.46 573.802L2680.38 552.642L2680.12 553.301ZM2734 574.001C2713.68 625.18 2667.59 652.54 2610.89 652.54V653.248C2667.84 653.248 2714.22 625.749 2734.66 574.262L2734 574.001ZM2756.85 380.165V379.811H2756.49V380.165H2756.85ZM2813.27 380.165H2813.63V379.811H2813.27V380.165ZM2925.34 380.165V379.811H2924.99V380.165H2925.34ZM2981.77 380.165H2982.12V379.811H2981.77V380.165ZM2869.31 652.54C2835.88 652.54 2807.86 641.498 2788.2 621.932C2768.54 602.366 2757.2 574.247 2757.2 540.04H2756.49C2756.49 574.408 2767.88 602.716 2787.7 622.433C2807.52 642.15 2835.72 653.248 2869.31 653.248V652.54ZM2757.2 540.04V380.165H2756.49V540.04H2757.2ZM2756.85 380.519H2813.27V379.811H2756.85V380.519ZM2812.92 380.165V536.122H2813.63V380.165H2812.92ZM2812.92 536.122C2812.92 555.577 2818.03 572.122 2827.65 583.81C2837.27 595.506 2851.38 602.307 2869.31 602.307V601.599C2851.58 601.599 2837.67 594.881 2828.19 583.36C2818.71 571.831 2813.63 555.46 2813.63 536.122H2812.92ZM2869.31 602.307C2887.04 602.307 2901.15 595.605 2910.82 583.958C2920.49 572.319 2925.7 555.774 2925.7 536.122H2924.99C2924.99 555.656 2919.81 572.026 2910.28 583.506C2900.75 594.978 2886.84 601.599 2869.31 601.599V602.307ZM2925.7 536.122V380.165H2924.99V536.122H2925.7ZM2925.34 380.519H2981.77V379.811H2925.34V380.519ZM2981.42 380.165V540.04H2982.12V380.165H2981.42ZM2981.42 540.04C2981.42 574.247 2969.98 602.365 2950.27 621.931C2930.56 641.498 2902.54 652.54 2869.31 652.54V653.248C2902.7 653.248 2930.9 642.15 2950.77 622.434C2970.63 602.717 2982.12 574.409 2982.12 540.04H2981.42ZM3019.2 647.016H3018.85V647.37H3019.2V647.016ZM3019.2 380.165V379.811H3018.85V380.165H3019.2ZM3074.84 380.165H3075.2V379.811H3074.84V380.165ZM3074.84 647.016V647.37H3075.2V647.016H3074.84ZM3019.55 647.016V380.165H3018.85V647.016H3019.55ZM3019.2 380.519H3074.84V379.811H3019.2V380.519ZM3074.49 380.165V647.016H3075.2V380.165H3074.49ZM3074.84 646.662H3019.2V647.37H3074.84V646.662ZM3171.84 647.016H3171.49V647.37H3171.84V647.016ZM3171.84 430.714H3172.19V430.36H3171.84V430.714ZM3094.64 430.714H3094.29V431.067H3094.64V430.714ZM3094.64 380.165V379.811H3094.29V380.165H3094.64ZM3305.07 380.165H3305.42V379.811H3305.07V380.165ZM3305.07 430.714V431.067H3305.42V430.714H3305.07ZM3227.48 430.714V430.36H3227.13V430.714H3227.48ZM3227.48 647.016V647.37H3227.84V647.016H3227.48ZM3172.19 647.016V430.714H3171.49V647.016H3172.19ZM3171.84 430.36H3094.64V431.067H3171.84V430.36ZM3095 430.714V380.165H3094.29V430.714H3095ZM3094.64 380.519H3305.07V379.811H3094.64V380.519ZM3304.71 380.165V430.714H3305.42V380.165H3304.71ZM3305.07 430.36H3227.48V431.067H3305.07V430.36ZM3227.13 430.714V647.016H3227.84V430.714H3227.13ZM3227.48 646.662H3171.84V647.37H3227.48V646.662Z" fill="url(#paint3_linear_56_133)" fill-opacity="0.6" mask="url(#path-7-outside-4_56_133)"/>
<mask id="path-9-outside-5_56_133" maskUnits="userSpaceOnUse" x="1410.43" y="760.63" width="2500" height="281" fill="black">
<rect fill="white" x="1410.43" y="760.63" width="2500" height="281"/>
<path d="M1488.44 1034.63V818.327H1411.24V767.779H1621.67V818.327H1544.08V1034.63H1488.44ZM1641.47 1034.63V767.779H1823.68V817.544H1697.12V874.362H1817.81V922.168H1697.12V984.865H1826.82V1034.63H1641.47ZM1985.19 1040.51C1904.86 1040.51 1848.82 982.122 1848.82 901.008C1848.82 820.287 1904.86 761.509 1985.19 761.509C2041.61 761.509 2087.85 788.547 2108.23 839.879L2054.15 861.039C2043.18 830.475 2017.71 812.842 1985.19 812.842C1937.38 812.45 1907.99 851.635 1907.99 901.008C1907.99 950.774 1937.38 989.959 1985.19 989.567C2017.71 989.567 2043.57 971.542 2054.54 940.585L2108.62 961.745C2088.24 1013.08 2042 1040.51 1985.19 1040.51ZM2134.27 1034.63V767.779H2189.92V872.795H2306.69V767.779H2362.33V1034.63H2306.69V924.128H2189.92V1034.63H2134.27ZM2600.97 1040.51C2520.65 1040.51 2464.61 982.122 2464.61 901.008C2464.61 820.287 2520.65 761.509 2600.97 761.509C2657.4 761.509 2703.64 788.547 2724.02 839.879L2669.94 861.039C2658.97 830.475 2633.5 812.842 2600.97 812.842C2553.17 812.45 2523.78 851.635 2523.78 901.008C2523.78 950.774 2553.17 989.959 2600.97 989.567C2633.5 989.567 2659.36 971.542 2670.33 940.585L2724.41 961.745C2704.03 1013.08 2657.79 1040.51 2600.97 1040.51ZM2750.06 1034.63V767.779H2805.71V1034.63H2750.06ZM2845.88 1034.63V767.779H2954.03C3007.72 767.779 3042.2 799.519 3042.2 848.5C3042.2 890.82 3014.38 918.642 2974.02 924.911L3065.71 1033.45V1034.63H2995.57L2901.92 920.601H2901.53V1034.63H2845.88ZM2948.16 815.193H2901.53V886.118H2948.16C2971.28 886.118 2986.17 872.011 2986.17 850.068C2986.17 828.516 2970.88 815.193 2948.16 815.193ZM3215.62 1040.51C3135.29 1040.51 3079.25 982.122 3079.25 901.008C3079.25 820.287 3135.29 761.509 3215.62 761.509C3272.04 761.509 3318.28 788.547 3338.66 839.879L3284.58 861.039C3273.61 830.475 3248.14 812.842 3215.62 812.842C3167.81 812.45 3138.42 851.635 3138.42 901.008C3138.42 950.774 3167.81 989.959 3215.62 989.567C3248.14 989.567 3274 971.542 3284.97 940.585L3339.05 961.745C3318.67 1013.08 3272.43 1040.51 3215.62 1040.51ZM3474.03 1040.51C3407.02 1040.51 3361.57 996.228 3361.57 927.654V767.779H3418V923.736C3418 962.529 3438.37 989.567 3474.03 989.567C3509.3 989.567 3530.07 962.921 3530.07 923.736V767.779H3586.49V927.654C3586.49 996.228 3540.65 1040.51 3474.03 1040.51ZM3623.92 1034.63V767.779H3679.57V1034.63H3623.92ZM3776.56 1034.63V818.327H3699.37V767.779H3909.79V818.327H3832.2V1034.63H3776.56Z"/>
</mask>
<path d="M1488.44 1034.63H1488.08V1034.98H1488.44V1034.63ZM1488.44 818.327H1488.79V817.974H1488.44V818.327ZM1411.24 818.327H1410.89V818.681H1411.24V818.327ZM1411.24 767.779V767.425H1410.89V767.779H1411.24ZM1621.67 767.779H1622.02V767.425H1621.67V767.779ZM1621.67 818.327V818.681H1622.02V818.327H1621.67ZM1544.08 818.327V817.974H1543.73V818.327H1544.08ZM1544.08 1034.63V1034.98H1544.43V1034.63H1544.08ZM1488.79 1034.63V818.327H1488.08V1034.63H1488.79ZM1488.44 817.974H1411.24V818.681H1488.44V817.974ZM1411.6 818.327V767.779H1410.89V818.327H1411.6ZM1411.24 768.132H1621.67V767.425H1411.24V768.132ZM1621.31 767.779V818.327H1622.02V767.779H1621.31ZM1621.67 817.974H1544.08V818.681H1621.67V817.974ZM1543.73 818.327V1034.63H1544.43V818.327H1543.73ZM1544.08 1034.28H1488.44V1034.98H1544.08V1034.28ZM1641.47 1034.63H1641.12V1034.98H1641.47V1034.63ZM1641.47 767.779V767.425H1641.12V767.779H1641.47ZM1823.68 767.779H1824.04V767.425H1823.68V767.779ZM1823.68 817.544V817.898H1824.04V817.544H1823.68ZM1697.12 817.544V817.19H1696.76V817.544H1697.12ZM1697.12 874.362H1696.76V874.716H1697.12V874.362ZM1817.81 874.362H1818.16V874.009H1817.81V874.362ZM1817.81 922.168V922.522H1818.16V922.168H1817.81ZM1697.12 922.168V921.815H1696.76V922.168H1697.12ZM1697.12 984.865H1696.76V985.218H1697.12V984.865ZM1826.82 984.865H1827.17V984.511H1826.82V984.865ZM1826.82 1034.63V1034.98H1827.17V1034.63H1826.82ZM1641.83 1034.63V767.779H1641.12V1034.63H1641.83ZM1641.47 768.132H1823.68V767.425H1641.47V768.132ZM1823.33 767.779V817.544H1824.04V767.779H1823.33ZM1823.68 817.19H1697.12V817.898H1823.68V817.19ZM1696.76 817.544V874.362H1697.47V817.544H1696.76ZM1697.12 874.716H1817.81V874.009H1697.12V874.716ZM1817.45 874.362V922.168H1818.16V874.362H1817.45ZM1817.81 921.815H1697.12V922.522H1817.81V921.815ZM1696.76 922.168V984.865H1697.47V922.168H1696.76ZM1697.12 985.218H1826.82V984.511H1697.12V985.218ZM1826.47 984.865V1034.63H1827.17V984.865H1826.47ZM1826.82 1034.28H1641.47V1034.98H1826.82V1034.28ZM2108.23 839.879L2108.36 840.209L2108.69 840.079L2108.56 839.749L2108.23 839.879ZM2054.15 861.039L2053.82 861.159L2053.94 861.501L2054.28 861.369L2054.15 861.039ZM1985.19 812.842L1985.18 813.195H1985.19V812.842ZM1985.19 989.567V989.213H1985.18L1985.19 989.567ZM2054.54 940.585L2054.67 940.256L2054.33 940.123L2054.21 940.467L2054.54 940.585ZM2108.62 961.745L2108.95 961.876L2109.08 961.546L2108.75 961.416L2108.62 961.745ZM1985.19 1040.15C1945.11 1040.15 1911.11 1025.59 1887.13 1000.93C1863.15 976.266 1849.17 941.482 1849.17 901.008H1848.47C1848.47 941.648 1862.51 976.614 1886.63 1001.42C1910.75 1026.23 1944.93 1040.86 1985.19 1040.86V1040.15ZM1849.17 901.008C1849.17 820.472 1905.06 761.863 1985.19 761.863V761.155C1904.65 761.155 1848.47 820.102 1848.47 901.008H1849.17ZM1985.19 761.863C2041.49 761.863 2087.58 788.832 2107.9 840.01L2108.56 839.749C2088.12 788.261 2041.73 761.155 1985.19 761.155V761.863ZM2108.1 839.55L2054.02 860.71L2054.28 861.369L2108.36 840.209L2108.1 839.55ZM2054.48 860.92C2043.46 830.213 2017.86 812.488 1985.19 812.488V813.195C2017.56 813.195 2042.9 830.737 2053.82 861.159L2054.48 860.92ZM1985.19 812.488C1961.18 812.291 1941.78 822.036 1928.39 838.036C1915 854.03 1907.64 876.254 1907.64 901.008H1908.34C1908.34 876.389 1915.67 854.334 1928.93 838.49C1942.19 822.652 1961.39 813 1985.18 813.195L1985.19 812.488ZM1907.64 901.008C1907.64 925.958 1915 948.28 1928.39 964.323C1941.78 980.372 1961.18 990.117 1985.19 989.921L1985.18 989.213C1961.39 989.408 1942.19 979.757 1928.93 963.87C1915.67 947.977 1908.34 925.824 1908.34 901.008H1907.64ZM1985.19 989.921C2017.86 989.921 2043.85 971.802 2054.88 940.704L2054.21 940.467C2043.29 971.281 2017.56 989.213 1985.19 989.213V989.921ZM2054.41 940.915L2108.49 962.075L2108.75 961.416L2054.67 940.256L2054.41 940.915ZM2108.29 961.615C2087.97 1012.79 2041.88 1040.15 1985.19 1040.15V1040.86C2042.13 1040.86 2088.51 1013.36 2108.95 961.876L2108.29 961.615ZM2134.27 1034.63H2133.92V1034.98H2134.27V1034.63ZM2134.27 767.779V767.425H2133.92V767.779H2134.27ZM2189.92 767.779H2190.27V767.425H2189.92V767.779ZM2189.92 872.795H2189.56V873.149H2189.92V872.795ZM2306.69 872.795V873.149H2307.04V872.795H2306.69ZM2306.69 767.779V767.425H2306.33V767.779H2306.69ZM2362.33 767.779H2362.68V767.425H2362.33V767.779ZM2362.33 1034.63V1034.98H2362.68V1034.63H2362.33ZM2306.69 1034.63H2306.33V1034.98H2306.69V1034.63ZM2306.69 924.128H2307.04V923.774H2306.69V924.128ZM2189.92 924.128V923.774H2189.56V924.128H2189.92ZM2189.92 1034.63V1034.98H2190.27V1034.63H2189.92ZM2134.63 1034.63V767.779H2133.92V1034.63H2134.63ZM2134.27 768.132H2189.92V767.425H2134.27V768.132ZM2189.56 767.779V872.795H2190.27V767.779H2189.56ZM2189.92 873.149H2306.69V872.441H2189.92V873.149ZM2307.04 872.795V767.779H2306.33V872.795H2307.04ZM2306.69 768.132H2362.33V767.425H2306.69V768.132ZM2361.98 767.779V1034.63H2362.68V767.779H2361.98ZM2362.33 1034.28H2306.69V1034.98H2362.33V1034.28ZM2307.04 1034.63V924.128H2306.33V1034.63H2307.04ZM2306.69 923.774H2189.92V924.481H2306.69V923.774ZM2189.56 924.128V1034.63H2190.27V924.128H2189.56ZM2189.92 1034.28H2134.27V1034.98H2189.92V1034.28ZM2724.02 839.879L2724.15 840.209L2724.48 840.079L2724.35 839.749L2724.02 839.879ZM2669.94 861.039L2669.61 861.159L2669.73 861.501L2670.07 861.369L2669.94 861.039ZM2600.97 812.842L2600.97 813.195H2600.97V812.842ZM2600.97 989.567V989.213H2600.97L2600.97 989.567ZM2670.33 940.585L2670.46 940.256L2670.12 940.123L2670 940.467L2670.33 940.585ZM2724.41 961.745L2724.74 961.876L2724.87 961.546L2724.54 961.416L2724.41 961.745ZM2600.97 1040.15C2560.9 1040.15 2526.9 1025.59 2502.92 1000.93C2478.94 976.266 2464.96 941.482 2464.96 901.008H2464.26C2464.26 941.648 2478.3 976.614 2502.42 1001.42C2526.54 1026.23 2560.72 1040.86 2600.97 1040.86V1040.15ZM2464.96 901.008C2464.96 820.472 2520.85 761.863 2600.97 761.863V761.155C2520.44 761.155 2464.26 820.102 2464.26 901.008H2464.96ZM2600.97 761.863C2657.28 761.863 2703.37 788.832 2723.69 840.01L2724.35 839.749C2703.91 788.261 2657.52 761.155 2600.97 761.155V761.863ZM2723.89 839.55L2669.81 860.71L2670.07 861.369L2724.15 840.209L2723.89 839.55ZM2670.27 860.92C2659.25 830.213 2633.65 812.488 2600.97 812.488V813.195C2633.35 813.195 2658.69 830.737 2669.61 861.159L2670.27 860.92ZM2600.98 812.488C2576.97 812.291 2557.57 822.036 2544.18 838.036C2530.79 854.03 2523.43 876.254 2523.43 901.008H2524.13C2524.13 876.389 2531.46 854.334 2544.72 838.49C2557.98 822.652 2577.18 813 2600.97 813.195L2600.98 812.488ZM2523.43 901.008C2523.43 925.958 2530.79 948.28 2544.18 964.323C2557.57 980.372 2576.97 990.117 2600.98 989.921L2600.97 989.213C2577.18 989.408 2557.98 979.757 2544.72 963.87C2531.46 947.977 2524.13 925.824 2524.13 901.008H2523.43ZM2600.97 989.921C2633.65 989.921 2659.64 971.802 2670.67 940.704L2670 940.467C2659.08 971.281 2633.35 989.213 2600.97 989.213V989.921ZM2670.2 940.915L2724.28 962.075L2724.54 961.416L2670.46 940.256L2670.2 940.915ZM2724.08 961.615C2703.76 1012.79 2657.67 1040.15 2600.97 1040.15V1040.86C2657.92 1040.86 2704.3 1013.36 2724.74 961.876L2724.08 961.615ZM2750.06 1034.63H2749.71V1034.98H2750.06V1034.63ZM2750.06 767.779V767.425H2749.71V767.779H2750.06ZM2805.71 767.779H2806.06V767.425H2805.71V767.779ZM2805.71 1034.63V1034.98H2806.06V1034.63H2805.71ZM2750.42 1034.63V767.779H2749.71V1034.63H2750.42ZM2750.06 768.132H2805.71V767.425H2750.06V768.132ZM2805.35 767.779V1034.63H2806.06V767.779H2805.35ZM2805.71 1034.28H2750.06V1034.98H2805.71V1034.28ZM2845.88 1034.63H2845.53V1034.98H2845.88V1034.63ZM2845.88 767.779V767.425H2845.53V767.779H2845.88ZM2974.02 924.911L2973.96 924.562L2973.34 924.658L2973.75 925.14L2974.02 924.911ZM3065.71 1033.45H3066.07V1033.32L3065.98 1033.23L3065.71 1033.45ZM3065.71 1034.63V1034.98H3066.07V1034.63H3065.71ZM2995.57 1034.63L2995.3 1034.85L2995.4 1034.98H2995.57V1034.63ZM2901.92 920.601L2902.19 920.376L2902.08 920.247H2901.92V920.601ZM2901.53 920.601V920.247H2901.17V920.601H2901.53ZM2901.53 1034.63V1034.98H2901.88V1034.63H2901.53ZM2901.53 815.193V814.839H2901.17V815.193H2901.53ZM2901.53 886.118H2901.17V886.472H2901.53V886.118ZM2846.24 1034.63V767.779H2845.53V1034.63H2846.24ZM2845.88 768.132H2954.03V767.425H2845.88V768.132ZM2954.03 768.132C2980.81 768.132 3002.76 776.046 3018.01 790.032C3033.26 804.015 3041.85 824.096 3041.85 848.5H3042.55C3042.55 823.922 3033.9 803.643 3018.49 789.511C3003.08 775.381 2980.94 767.425 2954.03 767.425V768.132ZM3041.85 848.5C3041.85 869.579 3034.92 887.026 3022.98 899.985C3011.05 912.946 2994.08 921.437 2973.96 924.562L2974.07 925.261C2994.32 922.116 3011.44 913.561 3023.5 900.464C3035.57 887.365 3042.55 869.742 3042.55 848.5H3041.85ZM2973.75 925.14L3065.44 1033.68L3065.98 1033.23L2974.29 924.683L2973.75 925.14ZM3065.36 1033.45V1034.63H3066.07V1033.45H3065.36ZM3065.71 1034.28H2995.57V1034.98H3065.71V1034.28ZM2995.84 1034.41L2902.19 920.376L2901.64 920.825L2995.3 1034.85L2995.84 1034.41ZM2901.92 920.247H2901.53V920.955H2901.92V920.247ZM2901.17 920.601V1034.63H2901.88V920.601H2901.17ZM2901.53 1034.28H2845.88V1034.98H2901.53V1034.28ZM2948.16 814.839H2901.53V815.546H2948.16V814.839ZM2901.17 815.193V886.118H2901.88V815.193H2901.17ZM2901.53 886.472H2948.16V885.764H2901.53V886.472ZM2948.16 886.472C2959.79 886.472 2969.38 882.922 2976.07 876.578C2982.77 870.233 2986.52 861.122 2986.52 850.068H2985.81C2985.81 860.956 2982.12 869.871 2975.59 876.065C2969.05 882.26 2959.64 885.764 2948.16 885.764V886.472ZM2986.52 850.068C2986.52 839.203 2982.66 830.385 2975.92 824.286C2969.18 818.19 2959.59 814.839 2948.16 814.839V815.546C2959.45 815.546 2968.86 818.857 2975.45 824.811C2982.03 830.761 2985.81 839.38 2985.81 850.068H2986.52ZM3338.66 839.879L3338.79 840.209L3339.12 840.079L3338.99 839.749L3338.66 839.879ZM3284.58 861.039L3284.25 861.159L3284.37 861.501L3284.71 861.369L3284.58 861.039ZM3215.62 812.842L3215.61 813.195H3215.62V812.842ZM3215.62 989.567V989.213H3215.61L3215.62 989.567ZM3284.97 940.585L3285.1 940.256L3284.76 940.123L3284.64 940.467L3284.97 940.585ZM3339.05 961.745L3339.38 961.876L3339.51 961.546L3339.18 961.416L3339.05 961.745ZM3215.62 1040.15C3175.54 1040.15 3141.54 1025.59 3117.56 1000.93C3093.58 976.266 3079.61 941.482 3079.61 901.008H3078.9C3078.9 941.648 3092.94 976.614 3117.06 1001.42C3141.18 1026.23 3175.36 1040.86 3215.62 1040.86V1040.15ZM3079.61 901.008C3079.61 820.472 3135.49 761.863 3215.62 761.863V761.155C3135.08 761.155 3078.9 820.102 3078.9 901.008H3079.61ZM3215.62 761.863C3271.92 761.863 3318.01 788.832 3338.33 840.01L3338.99 839.749C3318.55 788.261 3272.16 761.155 3215.62 761.155V761.863ZM3338.53 839.55L3284.45 860.71L3284.71 861.369L3338.79 840.209L3338.53 839.55ZM3284.92 860.92C3273.89 830.213 3248.29 812.488 3215.62 812.488V813.195C3247.99 813.195 3273.33 830.737 3284.25 861.159L3284.92 860.92ZM3215.62 812.488C3191.61 812.291 3172.21 822.036 3158.82 838.036C3145.44 854.03 3138.07 876.254 3138.07 901.008H3138.78C3138.78 876.389 3146.1 854.334 3159.36 838.49C3172.62 822.652 3191.82 813 3215.61 813.195L3215.62 812.488ZM3138.07 901.008C3138.07 925.958 3145.43 948.28 3158.82 964.323C3172.21 980.372 3191.61 990.117 3215.62 989.921L3215.61 989.213C3191.82 989.408 3172.62 979.757 3159.36 963.87C3146.1 947.977 3138.78 925.824 3138.78 901.008H3138.07ZM3215.62 989.921C3248.29 989.921 3274.29 971.802 3285.31 940.704L3284.64 940.467C3273.72 971.281 3247.99 989.213 3215.62 989.213V989.921ZM3284.85 940.915L3338.92 962.075L3339.18 961.416L3285.1 940.256L3284.85 940.915ZM3338.72 961.615C3318.41 1012.79 3272.31 1040.15 3215.62 1040.15V1040.86C3272.56 1040.86 3318.94 1013.36 3339.38 961.876L3338.72 961.615ZM3361.57 767.779V767.425H3361.22V767.779H3361.57ZM3418 767.779H3418.35V767.425H3418V767.779ZM3530.07 767.779V767.425H3529.71V767.779H3530.07ZM3586.49 767.779H3586.85V767.425H3586.49V767.779ZM3474.03 1040.15C3440.61 1040.15 3412.59 1029.11 3392.92 1009.55C3373.26 989.98 3361.92 961.861 3361.92 927.654H3361.22C3361.22 962.021 3372.61 990.33 3392.42 1010.05C3412.24 1029.76 3440.45 1040.86 3474.03 1040.86V1040.15ZM3361.92 927.654V767.779H3361.22V927.654H3361.92ZM3361.57 768.132H3418V767.425H3361.57V768.132ZM3417.64 767.779V923.736H3418.35V767.779H3417.64ZM3417.64 923.736C3417.64 943.191 3422.75 959.735 3432.37 971.424C3441.99 983.12 3456.1 989.921 3474.03 989.921V989.213C3456.3 989.213 3442.39 982.495 3432.91 970.974C3423.43 959.445 3418.35 943.074 3418.35 923.736H3417.64ZM3474.03 989.921C3491.76 989.921 3505.87 983.219 3515.55 971.572C3525.21 959.933 3530.42 943.387 3530.42 923.736H3529.71C3529.71 943.269 3524.54 959.64 3515 971.12C3505.47 982.592 3491.57 989.213 3474.03 989.213V989.921ZM3530.42 923.736V767.779H3529.71V923.736H3530.42ZM3530.07 768.132H3586.49V767.425H3530.07V768.132ZM3586.14 767.779V927.654H3586.85V767.779H3586.14ZM3586.14 927.654C3586.14 961.86 3574.71 989.979 3554.99 1009.55C3535.28 1029.11 3507.26 1040.15 3474.03 1040.15V1040.86C3507.42 1040.86 3535.63 1029.76 3555.49 1010.05C3575.36 990.331 3586.85 962.022 3586.85 927.654H3586.14ZM3623.92 1034.63H3623.57V1034.98H3623.92V1034.63ZM3623.92 767.779V767.425H3623.57V767.779H3623.92ZM3679.57 767.779H3679.92V767.425H3679.57V767.779ZM3679.57 1034.63V1034.98H3679.92V1034.63H3679.57ZM3624.28 1034.63V767.779H3623.57V1034.63H3624.28ZM3623.92 768.132H3679.57V767.425H3623.92V768.132ZM3679.21 767.779V1034.63H3679.92V767.779H3679.21ZM3679.57 1034.28H3623.92V1034.98H3679.57V1034.28ZM3776.56 1034.63H3776.21V1034.98H3776.56V1034.63ZM3776.56 818.327H3776.92V817.974H3776.56V818.327ZM3699.37 818.327H3699.01V818.681H3699.37V818.327ZM3699.37 767.779V767.425H3699.01V767.779H3699.37ZM3909.79 767.779H3910.15V767.425H3909.79V767.779ZM3909.79 818.327V818.681H3910.15V818.327H3909.79ZM3832.2 818.327V817.974H3831.85V818.327H3832.2ZM3832.2 1034.63V1034.98H3832.56V1034.63H3832.2ZM3776.92 1034.63V818.327H3776.21V1034.63H3776.92ZM3776.56 817.974H3699.37V818.681H3776.56V817.974ZM3699.72 818.327V767.779H3699.01V818.327H3699.72ZM3699.37 768.132H3909.79V767.425H3699.37V768.132ZM3909.44 767.779V818.327H3910.15V767.779H3909.44ZM3909.79 817.974H3832.2V818.681H3909.79V817.974ZM3831.85 818.327V1034.63H3832.56V818.327H3831.85ZM3832.2 1034.28H3776.56V1034.98H3832.2V1034.28Z" fill="url(#paint4_linear_56_133)" fill-opacity="0.6" mask="url(#path-9-outside-5_56_133)"/>
<defs>
<linearGradient id="paint0_linear_56_133" x1="-447.525" y1="-20.6333" x2="2065.1" y2="251.661" gradientUnits="userSpaceOnUse">
<stop stop-color="white" stop-opacity="0.6"/>
<stop offset="1" stop-color="white" stop-opacity="0.2"/>
</linearGradient>
<linearGradient id="paint1_linear_56_133" x1="-971.543" y1="710.263" x2="1541.09" y2="982.558" gradientUnits="userSpaceOnUse">
<stop stop-color="white" stop-opacity="0.6"/>
<stop offset="1" stop-color="white" stop-opacity="0.2"/>
</linearGradient>
<linearGradient id="paint2_linear_56_133" x1="-1599" y1="334.016" x2="913.628" y2="606.311" gradientUnits="userSpaceOnUse">
<stop stop-color="white" stop-opacity="0.6"/>
<stop offset="1" stop-color="white" stop-opacity="0.2"/>
</linearGradient>
<linearGradient id="paint3_linear_56_133" x1="801.705" y1="334.016" x2="3314.33" y2="606.311" gradientUnits="userSpaceOnUse">
<stop stop-color="white" stop-opacity="0.6"/>
<stop offset="1" stop-color="white" stop-opacity="0.2"/>
</linearGradient>
<linearGradient id="paint4_linear_56_133" x1="1406.43" y1="721.63" x2="3919.06" y2="993.924" gradientUnits="userSpaceOnUse">
<stop stop-color="white" stop-opacity="0.6"/>
<stop offset="1" stop-color="white" stop-opacity="0.2"/>
</linearGradient>
</defs>
</svg>
