<svg width="43" height="25" viewBox="0 0 43 25" fill="none" xmlns="http://www.w3.org/2000/svg">
<path d="M3.62109 7.30166V17.1405C3.62109 19.1504 2.02853 20.7888 0.0588312 20.8211C0.0266054 20.8215 4.1008e-05 20.7945 4.1008e-05 20.7618V3.68042C4.1008e-05 3.64766 0.0266054 3.62066 0.0588312 3.6211C2.02853 3.65297 3.62109 5.29183 3.62109 7.30166Z" fill="white"/>
<path d="M21.7265 6.27691V0.059926C21.7265 0.0270343 21.6996 0 21.6669 0H18.1651C18.1324 0 18.1055 0.0270343 18.1055 0.059926V2.73091C18.1055 4.70622 19.7086 6.3044 21.666 6.33684C21.6992 6.33729 21.7265 6.3098 21.7265 6.27646V6.27691Z" fill="white"/>
<path d="M14.884 7.02839V3.79592C14.884 1.69936 13.1915 0 11.1034 0H0.059518C0.0268503 0 0 0.0269597 0 0.0597607V3.43197C0 3.46477 0.0268503 3.49173 0.059518 3.49173H11.1034C11.1361 3.49173 11.163 3.51869 11.163 3.55149V20.8906C11.163 20.9234 11.1361 20.9504 11.1034 20.9504H0.059518C0.0268503 20.9504 0 20.9773 0 21.0101V24.3823C0 24.4151 0.0268503 24.4421 0.059518 24.4421H11.1034C13.1915 24.4421 14.884 22.7427 14.884 20.6462V10.6046C14.884 10.5718 14.9108 10.5448 14.9435 10.5448H17.9543C17.9869 10.5448 18.0138 10.5718 18.0138 10.6046V21.1247C18.0138 22.9405 19.5093 24.4417 21.3522 24.4417H28.4563C28.4889 24.4417 28.5158 24.4147 28.5158 24.3819V21.184C28.5158 21.1512 28.4889 21.1243 28.4563 21.1243H21.6896C21.6569 21.1243 21.6301 21.0973 21.6301 21.0645V10.6041C21.6301 10.5713 21.6569 10.5444 21.6896 10.5444H27.0542C27.0869 10.5444 27.1138 10.5174 27.1138 10.4846V7.14746C27.1138 7.11466 14.8155 7.0877 27.0542 7.0877H14.943C14.9104 7.0877 14.8835 7.06074 14.8835 7.02794L14.884 7.02839Z" fill="white"/>
<path d="M32.5222 11.769H29.0288C28.9958 11.769 28.9688 11.7969 28.9688 11.8309V20.7565C28.9688 22.8161 30.5825 24.4422 32.617 24.4422H42.9403C42.9732 24.4422 43.0003 24.4143 43.0003 24.3804V21.0708C43.0003 21.0369 42.9732 21.009 42.9403 21.009H32.6766C32.6437 21.009 32.6166 20.9816 32.6166 20.9476L32.5823 11.8299C32.5823 11.796 32.5552 11.7686 32.5222 11.7686V11.769Z" fill="white"/>
<path d="M42.9999 8.65718C42.9999 8.62585 42.9726 8.6001 42.9393 8.6001H35.9532C34.0968 8.6001 32.6217 9.97056 32.5898 11.7106C32.5894 11.7423 32.6172 11.7685 32.6509 11.7685H42.9398C42.973 11.7685 43.0004 11.7428 43.0004 11.7114V8.65675L42.9999 8.65718Z" fill="white"/>
</svg>
