<svg xmlns="http://www.w3.org/2000/svg" width="22" height="22" viewBox="0 0 22 22" fill="none">
          <path d="M14.4374 11C13.5539 11 12.6997 10.6055 12.0311 9.88969C11.381 9.19145 10.984 8.26031 10.9139 7.26859C10.8392 6.2107 11.1618 5.23789 11.8223 4.52891C12.4827 3.81992 13.4061 3.4375 14.4374 3.4375C15.4613 3.4375 16.3873 3.8268 17.0456 4.53406C17.7103 5.2482 18.0338 6.2193 17.9591 7.26816C17.8873 8.26117 17.4907 9.19187 16.8419 9.88926C16.175 10.6055 15.3212 11 14.4374 11Z" fill="white"/>
          <path d="M20.1017 18.5625H8.77302C8.59088 18.5635 8.41095 18.5226 8.24706 18.4432C8.08318 18.3637 7.93971 18.2477 7.82771 18.104C7.7089 17.9483 7.62686 17.7677 7.58772 17.5758C7.54858 17.3839 7.55335 17.1857 7.60169 16.9959C7.96349 15.5431 8.85982 14.3382 10.1936 13.512C11.3774 12.7789 12.8843 12.375 14.4372 12.375C16.0206 12.375 17.4879 12.7617 18.6786 13.4943C20.0154 14.3163 20.913 15.528 21.2731 16.9984C21.3208 17.1884 21.3251 17.3866 21.2855 17.5785C21.2459 17.7703 21.1635 17.9507 21.0445 18.1062C20.9326 18.2491 20.7894 18.3646 20.626 18.4437C20.4626 18.5228 20.2833 18.5634 20.1017 18.5625Z" fill="white"/>
          <path d="M6.31595 11.1719C4.80388 11.1719 3.47442 9.76594 3.3511 8.03816C3.29009 7.15301 3.56595 6.33445 4.12454 5.73418C4.67712 5.13992 5.45657 4.8125 6.31595 4.8125C7.17532 4.8125 7.94876 5.14164 8.50434 5.73934C9.06723 6.34434 9.34223 7.16117 9.27778 8.03902C9.15446 9.76637 7.82544 11.1719 6.31595 11.1719Z" fill="white"/>
          <path d="M9.13769 12.5233C8.38187 12.1538 7.40089 11.969 6.31679 11.969C5.05093 11.969 3.82159 12.299 2.8548 12.898C1.75866 13.5782 1.02132 14.5686 0.723545 15.7644C0.679968 15.9364 0.675847 16.1161 0.711488 16.2899C0.74713 16.4637 0.821613 16.6272 0.929365 16.7682C1.03161 16.8994 1.16259 17.0055 1.31225 17.0782C1.4619 17.1509 1.62623 17.1883 1.79261 17.1875H6.56214C6.64264 17.1875 6.72059 17.1593 6.78238 17.1077C6.84418 17.0561 6.88591 16.9845 6.9003 16.9052C6.90503 16.8782 6.91105 16.8511 6.91792 16.8245C7.2823 15.3609 8.13608 14.1243 9.39765 13.2228C9.44405 13.1894 9.48137 13.1449 9.50623 13.0934C9.53109 13.0419 9.5427 12.9849 9.54001 12.9278C9.53732 12.8707 9.52042 12.8151 9.49083 12.7662C9.46125 12.7172 9.41991 12.6764 9.37058 12.6475C9.30312 12.6079 9.22577 12.5663 9.13769 12.5233Z" fill="white"/>
        </svg>