<svg width="61" height="61" viewBox="0 0 61 61" fill="none" xmlns="http://www.w3.org/2000/svg">
<g filter="url(#filter0_b_191_297)">
<rect width="61" height="61" rx="30.5" fill="url(#paint0_linear_191_297)" fill-opacity="0.1"/>
<rect x="0.283333" y="0.283333" width="60.4333" height="60.4333" rx="30.2167" stroke="url(#paint1_linear_191_297)" stroke-opacity="0.7" stroke-width="0.566667"/>
</g>
<g clip-path="url(#clip0_191_297)">
<path d="M36.2502 19.5C39.7945 19.5 42.6668 22.4167 42.6668 26.5C42.6668 34.6667 33.9168 39.3333 31.0002 41.0833C28.0835 39.3333 19.3335 34.6667 19.3335 26.5C19.3335 22.4167 22.2502 19.5 25.7502 19.5C27.9202 19.5 29.8335 20.6667 31.0002 21.8333C32.1668 20.6667 34.0802 19.5 36.2502 19.5Z" fill="#FF4949"/>
</g>
<defs>
<filter id="filter0_b_191_297" x="-30.8" y="-30.8" width="122.6" height="122.6" filterUnits="userSpaceOnUse" color-interpolation-filters="sRGB">
<feFlood flood-opacity="0" result="BackgroundImageFix"/>
<feGaussianBlur in="BackgroundImageFix" stdDeviation="15.4"/>
<feComposite in2="SourceAlpha" operator="in" result="effect1_backgroundBlur_191_297"/>
<feBlend mode="normal" in="SourceGraphic" in2="effect1_backgroundBlur_191_297" result="shape"/>
</filter>
<linearGradient id="paint0_linear_191_297" x1="0" y1="0" x2="61.7954" y2="0.816684" gradientUnits="userSpaceOnUse">
<stop offset="0.01" stop-color="white"/>
<stop offset="1" stop-color="white"/>
</linearGradient>
<linearGradient id="paint1_linear_191_297" x1="0" y1="0" x2="61.7954" y2="0.816684" gradientUnits="userSpaceOnUse">
<stop stop-color="#BCBCBC"/>
<stop offset="1" stop-color="#C5C5C5"/>
</linearGradient>
<clipPath id="clip0_191_297">
<rect width="28" height="28" fill="white" transform="translate(17 16)"/>
</clipPath>
</defs>
</svg>
