<svg xmlns="http://www.w3.org/2000/svg" width="30" height="23" viewBox="0 0 30 23" fill="none">
          <path d="M28.3717 16.7367V9.34592L28.8325 9.10268C29.1321 8.94693 29.3208 8.63815 29.3245 8.30011C29.3282 7.96293 29.1454 7.65051 28.8495 7.48792L15.0656 0.112708C14.7899 -0.0384611 14.4563 -0.0375735 14.1787 0.115428L0.47047 7.4998C0.178639 7.66245 -0.00181853 7.97117 1.38229e-05 8.30606C0.00184617 8.64095 0.185997 8.94738 0.481493 9.10686L6.50489 12.313C6.4293 12.4463 6.38258 12.5984 6.38258 12.7624V20.515C6.38258 20.7762 6.49438 21.0258 6.6895 21.1994C6.88833 21.3758 8.79215 22.92 14.6131 22.92C20.4134 22.92 22.3685 21.4605 22.5723 21.2942C22.7853 21.1206 22.9086 20.8604 22.9086 20.5847V12.6332C22.9086 12.5044 22.8815 12.3821 22.8339 12.2713L26.5394 10.3138V16.7417C25.9961 17.0597 25.6278 17.6428 25.6278 18.3171C25.6278 19.329 26.4482 20.1495 27.4601 20.1495C28.472 20.1495 29.2925 19.329 29.2925 18.3171C29.2925 17.6387 28.9191 17.0532 28.3717 16.7367ZM21.0762 20.0597C20.3561 20.406 18.4504 21.0876 14.613 21.0876C10.7513 21.0876 8.88875 20.362 8.2149 20.0129V13.2236L14.1645 16.3909C14.2981 16.4631 14.4475 16.5008 14.5993 16.5008C14.7471 16.5009 14.8927 16.4649 15.0235 16.3959L21.0762 13.1989V20.0597ZM14.6066 14.5466L2.82229 8.28914L14.6272 1.96249L26.4688 8.27082L14.6066 14.5466Z" fill="white"/>
          </svg>