<svg xmlns="http://www.w3.org/2000/svg" width="22" height="22" viewBox="0 0 22 22" fill="none">
<g clip-path="url(#clip0_419_20)">
<path d="M16.5286 15.2324L20.4547 19.1576L19.1576 20.4547L15.2324 16.5286C13.7719 17.6994 11.9553 18.3362 10.0835 18.3335C5.5295 18.3335 1.8335 14.6375 1.8335 10.0835C1.8335 5.5295 5.5295 1.8335 10.0835 1.8335C14.6375 1.8335 18.3335 5.5295 18.3335 10.0835C18.3362 11.9553 17.6994 13.7719 16.5286 15.2324ZM14.6897 14.5522C15.8531 13.3559 16.5028 11.7522 16.5002 10.0835C16.5002 6.53783 13.6282 3.66683 10.0835 3.66683C6.53783 3.66683 3.66683 6.53783 3.66683 10.0835C3.66683 13.6282 6.53783 16.5002 10.0835 16.5002C11.7522 16.5028 13.3559 15.8531 14.5522 14.6897L14.6897 14.5522Z" fill="#757575"/>
</g>
<defs>
<clipPath id="clip0_419_20">
<rect width="22" height="22" fill="white"/>
</clipPath>
</defs>
</svg>