<svg xmlns="http://www.w3.org/2000/svg" width="24" height="24" viewBox="0 0 24 24" fill="none">
          <path d="M11 4C8.87827 4 6.84344 4.84285 5.34315 6.34315C3.84285 7.84344 3 9.87827 3 12C3 14.1217 3.84285 16.1566 5.34315 17.6569C6.84344 19.1571 8.87827 20 11 20C13.1217 20 15.1566 19.1571 16.6569 17.6569C18.1571 16.1566 19 14.1217 19 12C19 9.87827 18.1571 7.84344 16.6569 6.34315C15.1566 4.84285 13.1217 4 11 4ZM1 12C1 6.477 5.477 2 11 2C16.523 2 21 6.477 21 12C21 17.523 16.523 22 11 22C5.477 22 1 17.523 1 12ZM11 6C11.2652 6 11.5196 6.10536 11.7071 6.29289C11.8946 6.48043 12 6.73478 12 7V11.586L14.707 14.293C14.8892 14.4816 14.99 14.7342 14.9877 14.9964C14.9854 15.2586 14.8802 15.5094 14.6948 15.6948C14.5094 15.8802 14.2586 15.9854 13.9964 15.9877C13.7342 15.99 13.4816 15.8892 13.293 15.707L10.293 12.707C10.1055 12.5195 10.0001 12.2652 10 12V7C10 6.73478 10.1054 6.48043 10.2929 6.29289C10.4804 6.10536 10.7348 6 11 6Z" fill="white"/>
          </svg>