<svg xmlns="http://www.w3.org/2000/svg" width="23" height="23" viewBox="0 0 23 23" fill="none">
          <g clip-path="url(#clip0_192_37)">
          <path d="M4.70711 6.05775C4.52802 6.23679 4.28515 6.33736 4.03192 6.33736C3.77869 6.33736 3.53583 6.23679 3.35674 6.05775L2.00541 4.70834C1.82638 4.52925 1.7258 4.28638 1.7258 4.03315C1.7258 3.77992 1.82638 3.53705 2.00541 3.35797L3.35674 2.00569C3.53583 1.82665 3.77869 1.72607 4.03192 1.72607C4.28515 1.72607 4.52802 1.82665 4.70711 2.00569L6.05748 3.35606C6.23651 3.53514 6.33709 3.77801 6.33709 4.03124C6.33709 4.28447 6.23651 4.52734 6.05748 4.70643L11.4599 10.1098C11.8181 9.75175 12.3038 9.55059 12.8103 9.55059C13.3167 9.55059 13.8025 9.75175 14.1607 10.1098L20.9135 16.8617C21.091 17.0391 21.2319 17.2497 21.328 17.4816C21.4242 17.7134 21.4736 17.962 21.4736 18.213C21.4736 18.464 21.4242 18.7125 21.328 18.9444C21.2319 19.1763 21.091 19.3869 20.9135 19.5643L19.5631 20.9137C19.2049 21.2718 18.7192 21.473 18.2127 21.473C17.7063 21.473 17.2205 21.2718 16.8623 20.9137L10.1095 14.1619C9.9321 13.9845 9.79134 13.7739 9.69531 13.5421C9.59927 13.3104 9.54984 13.0619 9.54984 12.811C9.54984 12.5601 9.59927 12.3117 9.69531 12.0799C9.79134 11.8481 9.9321 11.6376 10.1095 11.4602L4.70711 6.05775ZM11.4599 12.8106L18.2127 19.5634L19.5631 18.213L12.8112 11.4602L11.4599 12.8106Z" fill="white"/>
          <path d="M12.6961 10.0678L10.26 7.63212C10.2101 7.58204 10.1508 7.5423 10.0855 7.51519C10.0202 7.48808 9.95016 7.47412 9.87946 7.47412C9.80876 7.47412 9.73875 7.48808 9.67346 7.51519C9.60816 7.5423 9.54886 7.58204 9.49895 7.63212L0.0798155 16.5185C0.0275826 16.5678 -0.0142502 16.627 -0.0432113 16.6927C-0.0721724 16.7584 -0.0876743 16.8292 -0.088801 16.901C-0.0899278 16.9728 -0.0766565 17.044 -0.0497714 17.1106C-0.0228862 17.1772 0.0170674 17.2377 0.0677288 17.2885L3.0245 20.2556C3.07526 20.3065 3.13572 20.3467 3.2023 20.3738C3.26888 20.4009 3.34022 20.4144 3.41211 20.4135C3.48399 20.4125 3.55495 20.3971 3.62079 20.3682C3.68662 20.3393 3.74598 20.2975 3.79536 20.2453L12.6952 10.8284C12.7453 10.7785 12.785 10.7193 12.8122 10.6541C12.8393 10.5889 12.8534 10.5189 12.8534 10.4483C12.8535 10.3776 12.8397 10.3077 12.8127 10.2424C12.7857 10.1771 12.7461 10.1178 12.6961 10.0678Z" fill="white"/>
          <path d="M21.8754 7.49064L19.9107 5.53975C19.8208 5.45019 19.7141 5.37931 19.5967 5.33121C19.4793 5.28311 19.3535 5.25875 19.2267 5.25952C19.0211 5.25971 18.8208 5.32455 18.6541 5.44485C18.6541 5.4256 18.6568 5.4068 18.6581 5.39023C18.6783 5.09926 18.7096 4.65966 18.4254 4.26124C18.0874 3.80571 17.7163 3.37569 17.3152 2.97468C17.3141 2.97338 17.3129 2.97218 17.3116 2.9711C16.7153 2.38377 15.4175 1.27762 13.4295 0.46691C12.6752 0.157665 11.8677 -0.000951952 11.0525 4.29802e-06C9.63965 4.29802e-06 8.56527 0.637467 8.15388 1.01529C7.74877 1.38495 7.48308 1.88266 7.40137 2.42496L8.11762 2.865C8.11762 2.865 8.47843 2.77547 8.73807 2.71325C9.00932 2.6554 9.28765 2.63805 9.56399 2.66177C10.1545 2.71056 10.8528 3.00378 11.1617 3.24775C11.6854 3.669 11.9375 4.23662 11.9791 5.08717C11.9881 5.27653 11.5529 6.04292 10.8976 6.87063C10.8431 6.93945 10.8157 7.02589 10.8208 7.11353C10.8258 7.20118 10.8628 7.28392 10.9249 7.34604L12.9559 9.37706C13.021 9.44156 13.1083 9.47867 13.1999 9.48075C13.2915 9.48283 13.3804 9.44973 13.4483 9.38825C13.9886 8.89583 14.8132 8.13481 15.0003 8.01887C15.3446 7.80713 15.5908 7.76639 15.6584 7.75923C15.8338 7.74203 16.0103 7.77923 16.1638 7.86577C16.1646 7.87344 16.1637 7.88117 16.1613 7.8885C16.1589 7.89582 16.1551 7.90256 16.1499 7.9083L16.0684 7.98574L16.055 7.99828C15.965 8.08797 15.8936 8.19458 15.845 8.31198C15.7963 8.42938 15.7714 8.55524 15.7716 8.68232C15.7718 8.80939 15.7971 8.93517 15.8462 9.05241C15.8952 9.16965 15.9669 9.27603 16.0572 9.36542L18.0247 11.3208C18.0918 11.3875 18.1826 11.4249 18.2772 11.4249C18.3718 11.4249 18.4626 11.3875 18.5297 11.3208L21.8728 7.99917C21.9065 7.96606 21.9333 7.92659 21.9518 7.88305C21.9702 7.8395 21.9798 7.79274 21.98 7.74546C21.9803 7.69819 21.9712 7.65133 21.9532 7.60759C21.9353 7.56386 21.9088 7.52411 21.8754 7.49064Z" fill="white"/>
          </g>
          <defs>
          <clipPath id="clip0_192_37">
          <rect width="22.92" height="22.92" fill="white" transform="matrix(0 1 -1 0 22.9199 0)"/>
          </clipPath>
          </defs>
          </svg>